<svg width="480" height="417" viewBox="0 0 480 417" fill="none" xmlns="http://www.w3.org/2000/svg">
<path d="M280.593 206.813C280.593 206.813 260.613 246.749 240.315 274.315C232.239 285.288 224.114 294.298 217.177 298.057C210.388 301.735 204.641 307.448 199.885 313.78C187.568 330.174 181.884 350.699 181.884 350.699L129.983 272.251C129.983 272.251 131.754 195.569 137.985 182.742C147.068 164.048 151.455 126.28 154.944 118.762C157.533 113.184 164.925 84.3715 165.634 82.2532C165.942 81.342 168.402 79.943 171.596 79.945C174.159 79.945 178.511 82.42 179.609 87.5074C185.159 113.215 178.478 130.175 178.554 130.927C180.512 150.687 174.626 165.355 178.753 169.237C178.907 169.381 179.192 169.314 179.596 169.056C186.751 164.467 231.16 99.7838 236.63 98.3869C242.406 96.9149 280.593 206.813 280.593 206.813Z" fill="#FFB27D"/>
<path d="M197.499 335.174C197.499 335.174 196.792 370.033 194.768 416.985H63.8507C93.7762 353.23 119.793 299.571 119.793 299.571C119.793 299.571 194.336 301.845 197.499 335.174Z" fill="#F99746"/>
<path d="M325.972 71.6552L309.898 95.1949L294.127 118.297C293.165 119.456 292.053 119.858 290.849 119.744C287.063 119.385 282.382 113.931 278.732 110.912L278.362 110.607C273.55 106.631 272.87 99.4441 276.849 94.6382L300.956 65.5253V65.5232L308.106 56.8892C312.088 52.0812 319.281 51.4015 324.09 55.3797L324.461 55.6841C329.274 59.6602 329.952 66.8472 325.972 71.6552Z" fill="#FFB27D"/>
<path d="M309.898 95.1949L294.127 118.297C293.165 119.456 292.053 119.858 290.849 119.744L300.956 65.5253C300.979 65.8297 302.696 90.1554 309.898 95.1949Z" fill="#EFA26F"/>
<path d="M240.315 274.315C232.239 285.288 224.114 294.298 217.177 298.057C210.388 301.735 204.641 307.448 199.885 313.78C194.415 311.232 188.18 308.244 182.085 305.284C174.663 301.681 174.378 291.152 181.648 287.25C181.719 287.213 181.788 287.173 181.857 287.134C188.668 283.241 195.648 269.49 195.648 269.49L240.315 274.315Z" fill="#EFA26F"/>
<path d="M165.272 83.4459L161.067 100.409C161.067 100.409 164.743 101.911 167.104 100.745C169.465 99.5776 171.392 84.3591 165.272 83.4459Z" fill="#FFC197"/>
<path d="M286.209 282.33H195.781C186.887 282.33 179.609 275.059 179.609 266.173V67.5936C179.609 58.7073 186.887 51.4348 195.781 51.4348H286.209C295.104 51.4348 302.381 58.7073 302.381 67.5936V266.173C302.381 275.059 295.104 282.33 286.209 282.33Z" fill="#2B478B"/>
<path d="M296.298 69.122V263.1C296.298 269.68 290.947 275.064 284.41 275.064H197.581C191.044 275.064 185.695 269.68 185.695 263.1V69.122C185.695 62.5417 191.044 57.1583 197.581 57.1583H284.41C290.947 57.1583 296.298 62.5417 296.298 69.122Z" fill="#C0D8FB"/>
<path d="M284.41 57.1583L198.655 275.064H197.581C191.044 275.064 185.695 269.68 185.695 263.1V69.122C185.695 62.5417 191.044 57.1583 197.581 57.1583H284.41Z" fill="#CBE1FD"/>
<path d="M259.141 64.3723H222.851C219.894 64.3723 217.478 61.9558 217.478 59.0034V58.159C217.478 55.2046 219.894 52.7901 222.851 52.7901H259.141C262.097 52.7901 264.515 55.2046 264.515 58.159V59.0034C264.515 61.9558 262.097 64.3723 259.141 64.3723Z" fill="#2B478B"/>
<path d="M317.971 160.551L315.575 161.46L299.458 167.58C299.08 167.724 298.696 167.847 298.314 167.943C292.978 169.327 287.299 166.485 285.298 161.225L285.062 160.606C282.916 154.968 285.78 148.6 291.423 146.457L306.449 140.754L307.54 140.337L309.938 139.428C315.581 137.285 321.953 140.145 324.096 145.785L324.334 146.402C326.477 152.042 323.616 158.408 317.971 160.551Z" fill="#FFB27D"/>
<path d="M304.881 160.92C302.193 161.94 297.322 163.746 294.718 164.121C293.981 164.225 292.623 163.825 291.356 162.438C290.596 161.608 289.87 160.426 289.329 158.787C289.077 158.016 288.868 157.247 288.778 156.456C288.678 155.529 288.705 154.601 288.868 153.683C289.014 152.856 289.58 152.103 290.404 151.705C290.408 151.703 290.415 151.703 290.417 151.698C293.186 150.376 296.92 148.767 300.192 147.87C302.454 147.245 304.744 148.244 305.46 150.222L305.798 151.146L307.528 155.879C308.244 157.845 307.079 160.093 304.881 160.92Z" fill="#FFD3B6"/>
<path d="M304.881 160.92C302.193 161.94 297.322 163.746 294.718 164.121C293.981 164.225 292.623 163.825 291.356 162.438C291.222 162.123 291.097 161.792 290.98 161.435C290.726 160.664 290.517 159.897 290.429 159.104C290.329 158.176 290.356 157.251 290.517 156.331C290.665 155.506 291.231 154.751 292.055 154.355C292.057 154.351 292.063 154.351 292.067 154.348C294.837 153.027 298.568 151.417 301.843 150.518C303.291 150.118 304.75 150.383 305.798 151.146L307.528 155.879C308.244 157.845 307.079 160.093 304.881 160.92Z" fill="#FFC197"/>
<path d="M310.658 183.19L298.228 186.57C294.451 187.598 290.521 185.35 289.492 181.578L289.108 180.171C288.081 176.399 290.329 172.471 294.106 171.443L306.536 168.063C310.312 167.036 314.243 169.283 315.272 173.057L315.654 174.462C316.683 178.234 314.433 182.162 310.658 183.19Z" fill="#FFB27D"/>
<path d="M303.936 182.581C301.653 183.19 297.527 184.264 295.363 184.381C294.576 184.427 293 183.761 291.973 181.695C291.719 181.195 291.504 180.615 291.337 179.944C291.187 179.333 291.07 178.73 291.059 178.117C291.045 177.398 291.137 176.687 291.337 175.993C291.516 175.367 292.038 174.825 292.741 174.575C292.748 174.571 292.75 174.571 292.754 174.569C295.123 173.733 298.303 172.734 301.056 172.254C302.955 171.923 304.758 172.834 305.203 174.402L305.524 175.519L306.482 178.878C306.924 180.432 305.802 182.085 303.936 182.581Z" fill="#FFD3B6"/>
<path d="M303.936 182.581C301.653 183.19 297.527 184.264 295.363 184.381C294.576 184.427 293 183.761 291.974 181.695C291.834 181.126 291.734 180.559 291.721 179.981C291.706 179.264 291.798 178.551 291.999 177.857C292.178 177.233 292.7 176.687 293.405 176.437C293.409 176.435 293.414 176.435 293.416 176.433C295.784 175.597 298.967 174.598 301.718 174.12C303.291 173.845 304.8 174.425 305.524 175.52L306.482 178.878C306.925 180.432 305.802 182.085 303.936 182.581Z" fill="#FFC197"/>
<path d="M107.047 326.019C107.047 326.019 132.631 350.499 149.877 359.95L162.935 350.697V364.347C162.935 364.347 188.615 368.884 196.715 364.347V327.124L124.586 290.999L107.047 326.019Z" fill="#ED7D2B"/>
<path d="M202.164 361.385C192.228 363.422 170.813 355.624 170.813 355.624L174.267 322.293L150.068 349.98C137.752 345.401 118.492 333.454 107.048 326.019C101.351 322.316 97.5898 319.733 97.5898 319.733C113.739 293.77 129.983 269.488 129.983 269.488C134.751 279.019 146.035 287.292 158.268 293.912C178.597 304.912 201.543 311.338 201.543 311.338C201.536 331.148 202.164 361.385 202.164 361.385Z" fill="#DCEAFF"/>
<path d="M317.578 136.753C317.491 136.784 317.401 136.816 317.311 136.845L301.016 141.023C293.852 142.862 286.441 138.99 284.55 132.416L283.582 129.049C281.764 122.74 285.669 116.141 292.328 114.002L297.709 112.621L308.623 109.821C315.788 107.982 323.197 111.856 325.087 118.428L326.058 121.795C327.848 128.021 324.071 134.522 317.578 136.753Z" fill="#FFB27D"/>
<path d="M310.111 132.208L302.196 135.773C302.183 135.775 302.168 135.779 302.145 135.784C301.828 135.869 301.507 135.934 301.188 135.982C301.056 136.002 300.92 136.017 300.787 136.032C300.73 136.038 300.676 136.038 300.62 136.034C299.748 136.005 299.149 135.081 299.526 134.257C300.276 132.629 300.478 130.746 299.975 128.895L299.785 128.205C299.785 128.2 299.783 128.19 299.779 128.184L299.167 125.938C298.681 124.149 297.646 122.652 296.298 121.568C296.135 121.437 295.968 121.311 295.797 121.195C294.232 120.111 294.63 117.659 296.463 117.15C296.479 117.144 296.494 117.141 296.513 117.135L305.201 115.824C307.348 115.24 309.416 116.891 310.003 119.037L310.7 121.595L312.186 127.049C312.768 129.197 312.259 131.626 310.111 132.208Z" fill="#FFD3B6"/>
<path d="M310.111 132.208L302.196 135.773C302.183 135.775 302.168 135.779 302.145 135.783C301.96 135.819 301.38 135.917 300.62 136.034C299.748 136.005 299.149 135.081 299.526 134.257C300.276 132.629 300.478 130.746 299.975 128.895L299.785 128.205C299.785 128.2 299.783 128.19 299.779 128.184L299.167 125.938C298.681 124.149 297.646 122.652 296.298 121.568C296.577 121.159 296.995 120.836 297.544 120.682C297.558 120.676 297.575 120.674 297.594 120.667L306.282 119.354C308.091 118.864 309.84 119.958 310.7 121.595L312.186 127.049C312.768 129.197 312.259 131.626 310.111 132.208Z" fill="#FFC197"/>
<path d="M179.609 221.431C179.609 221.431 176.054 190.429 172.774 184.385C169.494 178.338 166.719 166.231 171.765 157.236C176.811 148.237 178.554 130.928 178.554 130.928C180.512 150.687 174.626 165.355 178.753 169.237C178.907 169.381 179.192 169.314 179.596 169.056L179.609 221.431Z" fill="#EFA26F"/>
<path d="M135.553 170.937H259.008C263.295 170.937 266.769 167.465 266.769 163.185V113.787C266.769 109.504 263.295 106.033 259.008 106.033H135.553C131.267 106.033 127.792 109.504 127.792 113.787V163.185C127.792 167.465 131.267 170.937 135.553 170.937Z" fill="#699DEE"/>
<path d="M259.874 97.8136H211.551C207.966 97.8136 205.06 94.9092 205.06 91.3272V82.1719C205.06 78.5899 207.966 75.6876 211.551 75.6876H259.874C263.46 75.6876 266.365 78.5899 266.365 82.1719V91.3272C266.365 94.9092 263.46 97.8136 259.874 97.8136Z" fill="#9ABFF6"/>
<path d="M257.754 260.041H202.045C197.752 260.041 194.271 256.563 194.271 252.275V240.509C194.271 236.22 197.752 232.744 202.045 232.744H257.754C262.049 232.744 265.528 236.22 265.528 240.509V252.275C265.528 256.563 262.049 260.041 257.754 260.041Z" fill="#9ABFF6"/>
<path d="M279.408 221.431H226.777C221.633 221.431 217.463 217.265 217.463 212.128V191.553C217.463 186.414 221.633 182.248 226.777 182.248H279.408C284.55 182.248 288.72 186.414 288.72 191.553V212.128C288.72 217.265 284.55 221.431 279.408 221.431Z" fill="#F99746"/>
<path d="M428.204 417H332.191C327.587 413.916 303.677 397.622 293.783 385.475C291.688 382.9 284.018 360.715 278.125 342.703C274.445 331.452 271.457 321.824 270.952 319.616C270.776 318.847 270.659 317.322 270.589 315.258V315.237C270.338 307.871 270.68 293.666 271.033 282.382L271.035 282.33L271.041 282.182C271.058 281.686 271.073 281.198 271.089 280.714V280.697C271.091 280.649 271.091 280.599 271.094 280.551C271.158 278.591 271.221 276.744 271.279 275.064C271.427 270.864 271.553 267.706 271.605 266.469L271.626 265.894C271.626 265.894 271.628 265.894 271.63 265.892C271.782 265.806 276.401 263.344 282.574 267.787C284.064 268.861 285.441 271.455 286.698 274.838C287.501 276.999 288.255 279.48 288.956 282.094C291.652 292.15 293.587 304.172 294.62 307.392C296.285 312.594 315.915 335.47 317.142 336.892C317.161 336.917 317.182 336.94 317.201 336.963V300.836L302.381 261.221L296.298 244.958L293.24 236.785C293.24 236.785 288.551 229.094 284.617 219.84C282.895 215.791 281.318 211.444 280.341 207.312C280.107 206.327 279.909 205.354 279.75 204.401C279.75 204.399 279.75 204.399 279.75 204.397C279.172 200.904 279.132 197.664 279.936 195.027C281.37 190.329 284.6 189.445 287.082 189.541C287.338 189.549 287.587 189.572 287.827 189.6C288.069 189.629 288.309 189.675 288.541 189.737C288.977 189.852 289.39 190.027 289.774 190.25C289.778 190.25 289.778 190.252 289.78 190.254C290.417 190.625 290.966 191.136 291.391 191.76C291.391 191.76 293.487 194.493 296.298 198.167C298.147 200.585 300.307 203.411 302.381 206.134C306.075 210.985 309.506 215.512 310.449 216.838C315.548 224.008 329.276 247.375 329.276 247.375L345.345 248.048C347.891 248.155 350.314 249.168 352.176 250.905C357.89 256.236 370.209 267.772 371.72 269.488C371.72 270.051 381.293 274.651 388.689 278.746C393.98 280.979 404.029 288.893 404.029 288.893C406.111 290.73 407.697 292.559 408.501 294.306C411.946 301.798 421.292 366.952 425.76 399.161C427.198 409.515 428.131 416.464 428.204 417Z" fill="#FFB27D"/>
<path d="M329.276 247.375C329.276 247.375 344.162 271.653 346.132 272.745C348.104 273.84 355.766 275.37 356.642 272.745C357.517 270.12 329.276 247.375 329.276 247.375Z" fill="#EFA26F"/>
<path d="M404.104 288.96C404.079 288.937 404.053 288.916 404.028 288.893C404.028 288.893 393.98 280.979 388.689 278.746C381.898 274.984 373.275 270.802 371.908 269.705C373.484 271.507 384.57 284.042 388.838 284.98C392.584 285.806 401.092 288.13 404.104 288.96Z" fill="#EFA26F"/>
<path d="M317.201 336.963V300.836C317.201 300.836 325.791 315.192 326.448 323.067C327.105 330.937 322.879 343.685 317.201 336.963Z" fill="#EFA26F"/>
<path d="M286.032 204.39C284.776 202.239 282.526 198.338 281.752 196.155C281.535 195.538 281.562 194.303 282.321 192.988C282.774 192.197 283.492 191.38 284.575 190.65C285.085 190.306 285.6 190.002 286.157 189.798C286.808 189.562 287.485 189.435 288.182 189.424C288.81 189.418 289.463 189.783 289.912 190.429C289.914 190.431 289.914 190.436 289.918 190.438C291.408 192.608 293.295 195.563 294.578 198.238C295.465 200.085 295.185 202.218 293.891 203.154L293.286 203.596L290.193 205.852C288.908 206.788 287.055 206.15 286.032 204.39Z" fill="#FFD3B6"/>
<path d="M286.032 204.39C284.776 202.239 282.526 198.338 281.752 196.155C281.535 195.538 281.562 194.303 282.321 192.988C282.522 192.819 282.739 192.658 282.975 192.5C283.484 192.156 283.999 191.851 284.557 191.647C285.21 191.411 285.886 191.284 286.581 191.274C287.209 191.267 287.864 191.632 288.311 192.279C288.313 192.281 288.315 192.285 288.317 192.287C289.809 194.46 291.696 197.414 292.977 200.087C293.547 201.271 293.637 202.57 293.286 203.596L290.193 205.852C288.908 206.788 287.055 206.15 286.032 204.39Z" fill="#FFC197"/>
<path d="M369.878 111.792H349.751C344.456 111.792 340.124 107.463 340.124 102.173V85.6102C340.124 80.3205 344.456 75.9942 349.751 75.9942H369.878C375.172 75.9942 379.503 80.3205 379.503 85.6102V102.173C379.503 107.463 375.172 111.792 369.878 111.792Z" fill="#DFEBFD"/>
<path d="M349.348 93.5998C350.442 96.4792 359.819 104.044 359.819 104.044C359.819 104.044 362.876 101.562 365.706 98.8895C367.824 96.9129 369.805 94.83 370.274 93.5998C371.384 90.7371 370.203 86.6422 366.107 85.9479C362.024 85.2536 359.819 89.5216 359.819 89.5216C359.819 89.5216 357.615 85.2536 353.516 85.9479C352.804 86.0709 352.178 86.2961 351.64 86.6067C349.087 88.0308 348.445 91.2396 349.348 93.5998Z" fill="#F99746"/>
<path d="M46.2154 205.026H106.511C111.317 205.026 115.25 208.955 115.25 213.756V240.184C115.25 244.596 111.638 248.203 107.223 248.203H105.674L108.579 260.462L90.341 248.203H45.6949C40.8926 248.203 36.9635 244.279 36.9635 239.481V214.269C36.9635 209.186 41.1268 205.026 46.2154 205.026Z" fill="#DFEBFD"/>
<path d="M44.5974 224.208H107.467C108.323 224.208 109.024 223.508 109.024 222.653C109.024 221.798 108.323 221.098 107.467 221.098H44.5974C43.7413 221.098 43.0405 221.798 43.0405 222.653C43.0405 223.508 43.7413 224.208 44.5974 224.208Z" fill="#CBE1FD"/>
<path d="M44.5974 231.17H107.467C108.323 231.17 109.024 230.472 109.024 229.615C109.024 228.76 108.323 228.059 107.467 228.059H44.5974C43.7413 228.059 43.0405 228.76 43.0405 229.615C43.0405 230.472 43.7413 231.17 44.5974 231.17Z" fill="#CBE1FD"/>
<path d="M44.5974 238.134H107.467C108.323 238.134 109.024 237.434 109.024 236.579C109.024 235.722 108.323 235.023 107.467 235.023H44.5974C43.7413 235.023 43.0405 235.722 43.0405 236.579C43.0405 237.434 43.7413 238.134 44.5974 238.134Z" fill="#CBE1FD"/>
<path d="M78.8493 213.394H105.539C106.559 213.394 107.393 212.562 107.393 211.542C107.393 210.525 106.559 209.691 105.539 209.691H78.8493C77.83 209.691 76.9958 210.525 76.9958 211.542C76.9958 212.562 77.83 213.394 78.8493 213.394Z" fill="#CBE1FD"/>
<path d="M55.9125 213.394H71.9724C72.7782 213.394 73.4375 212.737 73.4375 211.932V211.154C73.4375 210.349 72.7782 209.691 71.9724 209.691H55.9125C55.1067 209.691 54.4476 210.349 54.4476 211.154V211.932C54.4476 212.737 55.1067 213.394 55.9125 213.394Z" fill="#CBE1FD"/>
<path d="M349.177 218.429L387.101 230.816L364.385 208.696L362.079 214.1L352.316 214.148L349.177 218.429Z" fill="#9EC3F6"/>
<path d="M387.101 230.816L357.669 208.448L326.223 201.271L387.101 230.816Z" fill="white"/>
<path d="M364.385 208.696L387.101 230.816L371.958 199.829L364.385 208.696Z" fill="white"/>
<path d="M125.551 77.2806L90.1038 82.3325L113.627 66.3155L114.823 71.4509L123.444 73.0105L125.551 77.2806Z" fill="#9EC3F6"/>
<path d="M90.1038 82.3325L119.602 67.1391L148.513 65.6859L90.1038 82.3325Z" fill="white"/>
<path d="M113.627 66.3155L90.1038 82.3325L108.314 57.2979L113.627 66.3155Z" fill="white"/>
<path d="M181.204 136.036C181.204 140.656 179.647 144.912 177.024 148.308C176.154 149.436 175.167 150.468 174.082 151.388C170.573 154.361 166.03 156.154 161.067 156.154C156.557 156.154 152.396 154.676 149.039 152.172C147.559 151.071 146.236 149.77 145.11 148.308C142.487 144.912 140.93 140.656 140.93 136.036C140.93 124.925 149.945 115.918 161.067 115.918C172.19 115.918 181.204 124.925 181.204 136.036Z" fill="white"/>
<path d="M169.158 145.545C169.104 145.485 169.051 145.429 169.001 145.377C168.77 145.199 168.538 145.089 167.607 144.928C167.134 144.849 166.476 144.755 165.544 144.634C165.544 144.634 165.343 144.611 165.237 144.603C165.166 144.597 165.091 144.591 165.003 144.582C164.736 144.443 164.667 143.335 164.669 142.168C164.669 142.08 164.671 141.993 164.671 141.905C164.675 141.463 164.69 141.027 164.706 140.635C164.706 140.61 164.709 140.587 164.709 140.562C165.285 140.61 165.666 140.606 165.666 140.606C166.739 140.521 167.409 137.647 167.649 135.325C167.649 135.325 168.179 134.051 168.179 132.673C168.179 131.897 168.012 131.09 167.491 130.456C167.219 130.131 166.969 129.916 166.737 129.781C166.67 129.714 166.601 129.654 166.535 129.595C165.537 128.488 161.48 124.339 158.817 126.739C158.748 126.499 157.882 123.805 153.683 124.687C153.944 124.66 155.806 124.485 156.344 125.238C156.271 125.206 154.645 124.485 153.621 125.115C153.147 125.402 152.853 126.001 152.686 126.63C152.684 126.635 152.684 126.639 152.681 126.643C152.681 126.647 152.679 126.649 152.679 126.653V126.655C152.677 126.662 152.675 126.668 152.675 126.674C152.657 126.76 152.636 126.845 152.617 126.931C152.615 126.943 152.61 126.956 152.608 126.97C152.608 126.974 152.606 126.976 152.606 126.981C152.606 126.983 152.606 126.983 152.606 126.985C152.481 127.635 152.481 128.267 152.556 128.574C152.713 129.23 153.871 131.186 154.639 131.186C154.931 131.186 155.24 131.09 155.516 130.971C155.397 131.317 155.29 131.697 155.202 132.11C154.387 135.944 156.937 138.857 158.258 138.135C159.105 137.675 159.746 139.155 159.746 139.155L159.75 139.149C159.625 141.953 158.855 143.784 158.283 144.24C158.078 144.263 157.636 144.317 157.083 144.405V144.403C157.083 144.403 155.136 144.616 153.654 145.26C153.641 145.264 153.631 145.268 153.618 145.274C153.28 145.414 152.992 145.57 152.778 145.741C152.775 145.746 152.773 145.748 152.771 145.748V145.75C152.658 145.837 152.567 145.931 152.5 146.031C152.465 146.073 152.435 146.115 152.412 146.158C151.918 147.101 151.419 148.517 150.941 150.176C153.788 152.299 157.317 153.554 161.142 153.554C165.352 153.554 169.204 152.034 172.18 149.511C171.086 147.234 169.838 146.06 169.158 145.545Z" fill="#2B478B"/>
<path d="M217.87 125.901H194.994C194.201 125.901 193.552 125.252 193.552 124.46V123.774C193.552 122.982 194.201 122.333 194.994 122.333H217.87C218.663 122.333 219.31 122.982 219.31 123.774V124.46C219.31 125.252 218.663 125.901 217.87 125.901Z" fill="white"/>
<path d="M218.145 138.73H194.716C194.075 138.73 193.552 138.206 193.552 137.566C193.552 136.926 194.075 136.403 194.716 136.403H218.145C218.786 136.403 219.31 136.926 219.31 137.566C219.31 138.206 218.786 138.73 218.145 138.73Z" fill="white"/>
<path d="M207.774 144.234H194.443C193.953 144.234 193.552 143.834 193.552 143.344V142.8C193.552 142.31 193.953 141.907 194.443 141.907H207.774C208.265 141.907 208.666 142.31 208.666 142.8V143.344C208.666 143.834 208.265 144.234 207.774 144.234Z" fill="white"/>
<path d="M234.941 144.234H213.402C212.786 144.234 212.283 143.732 212.283 143.117V143.025C212.283 142.412 212.786 141.907 213.402 141.907H234.941C235.557 141.907 236.06 142.412 236.06 143.025V143.117C236.06 143.732 235.557 144.234 234.941 144.234Z" fill="white"/>
<path d="M255.068 138.73H224.346C223.705 138.73 223.181 138.206 223.181 137.566C223.181 136.926 223.705 136.403 224.346 136.403H255.068C255.706 136.403 256.232 136.926 256.232 137.566C256.232 138.206 255.706 138.73 255.068 138.73Z" fill="white"/>
<path d="M218.145 149.74H194.716C194.075 149.74 193.552 149.217 193.552 148.577C193.552 147.937 194.075 147.414 194.716 147.414H218.145C218.786 147.414 219.31 147.937 219.31 148.577C219.31 149.217 218.786 149.74 218.145 149.74Z" fill="white"/>
<path d="M255.068 149.74H224.346C223.705 149.74 223.181 149.217 223.181 148.577C223.181 147.937 223.705 147.414 224.346 147.414H255.068C255.706 147.414 256.232 147.937 256.232 148.577C256.232 149.217 255.706 149.74 255.068 149.74Z" fill="white"/>
<path d="M240.165 125.901H223.736C223.058 125.901 222.501 125.346 222.501 124.666V123.568C222.501 122.888 223.058 122.333 223.736 122.333H240.165C240.845 122.333 241.4 122.888 241.4 123.568V124.666C241.4 125.346 240.845 125.901 240.165 125.901Z" fill="white"/>
<path d="M219.452 240.499H203.188C202.625 240.499 202.163 240.038 202.163 239.475V238.987C202.163 238.422 202.625 237.961 203.188 237.961H219.452C220.015 237.961 220.476 238.422 220.476 238.987V239.475C220.476 240.038 220.015 240.499 219.452 240.499Z" fill="#699DEE"/>
<path d="M219.648 246.995H202.991C202.535 246.995 202.163 246.622 202.163 246.168C202.163 245.713 202.535 245.34 202.991 245.34H219.648C220.103 245.34 220.476 245.713 220.476 246.168C220.476 246.622 220.103 246.995 219.648 246.995Z" fill="#699DEE"/>
<path d="M212.275 250.909H202.797C202.448 250.909 202.163 250.623 202.163 250.275V249.887C202.163 249.539 202.448 249.255 202.797 249.255H212.275C212.623 249.255 212.909 249.539 212.909 249.887V250.275C212.909 250.623 212.623 250.909 212.275 250.909Z" fill="#699DEE"/>
<path d="M231.59 250.909H216.275C215.837 250.909 215.48 250.55 215.48 250.115V250.05C215.48 249.612 215.837 249.255 216.275 249.255H231.59C232.028 249.255 232.385 249.612 232.385 250.05V250.115C232.385 250.55 232.028 250.909 231.59 250.909Z" fill="#699DEE"/>
<path d="M245.898 246.995H224.056C223.601 246.995 223.229 246.622 223.229 246.168C223.229 245.713 223.601 245.34 224.056 245.34H245.898C246.353 245.34 246.726 245.713 246.726 246.168C246.726 246.622 246.353 246.995 245.898 246.995Z" fill="#699DEE"/>
<path d="M219.648 254.822H202.991C202.535 254.822 202.163 254.451 202.163 253.997C202.163 253.542 202.535 253.169 202.991 253.169H219.648C220.103 253.169 220.476 253.542 220.476 253.997C220.476 254.451 220.103 254.822 219.648 254.822Z" fill="#699DEE"/>
<path d="M245.898 254.822H224.056C223.601 254.822 223.229 254.451 223.229 253.997C223.229 253.542 223.601 253.169 224.056 253.169H245.898C246.353 253.169 246.726 253.542 246.726 253.997C246.726 254.451 246.353 254.822 245.898 254.822Z" fill="#699DEE"/>
<path d="M235.304 240.499H223.624C223.14 240.499 222.745 240.104 222.745 239.621V238.839C222.745 238.357 223.14 237.961 223.624 237.961H235.304C235.786 237.961 236.183 238.357 236.183 238.839V239.621C236.183 240.104 235.786 240.499 235.304 240.499Z" fill="#699DEE"/>
<path d="M230.239 82.493H213.978C213.412 82.493 212.951 82.0302 212.951 81.4672V80.9794C212.951 80.4164 213.412 79.9556 213.978 79.9556H230.239C230.805 79.9556 231.266 80.4164 231.266 80.9794V81.4672C231.266 82.0302 230.805 82.493 230.239 82.493Z" fill="#699DEE"/>
<path d="M230.438 88.9878H213.779C213.324 88.9878 212.951 88.6146 212.951 88.16C212.951 87.7055 213.324 87.3323 213.779 87.3323H230.438C230.893 87.3323 231.266 87.7055 231.266 88.16C231.266 88.6146 230.893 88.9878 230.438 88.9878Z" fill="#699DEE"/>
<path d="M223.062 92.9014H213.585C213.237 92.9014 212.951 92.6178 212.951 92.2675V91.8818C212.951 91.5336 213.237 91.248 213.585 91.248H223.062C223.411 91.248 223.697 91.5336 223.697 91.8818V92.2675C223.697 92.6178 223.411 92.9014 223.062 92.9014Z" fill="#699DEE"/>
<path d="M242.379 92.9014H227.063C226.627 92.9014 226.268 92.5448 226.268 92.107V92.0423C226.268 91.6045 226.627 91.248 227.063 91.248H242.379C242.815 91.248 243.174 91.6045 243.174 92.0423V92.107C243.174 92.5448 242.815 92.9014 242.379 92.9014Z" fill="#699DEE"/>
<path d="M256.687 88.9878H234.845C234.39 88.9878 234.017 88.6146 234.017 88.16C234.017 87.7055 234.39 87.3323 234.845 87.3323H256.687C257.142 87.3323 257.514 87.7055 257.514 88.16C257.514 88.6146 257.142 88.9878 256.687 88.9878Z" fill="#699DEE"/>
<path d="M246.092 82.493H234.411C233.929 82.493 233.535 82.0969 233.535 81.6153V80.8313C233.535 80.3497 233.929 79.9556 234.411 79.9556H246.092C246.576 79.9556 246.97 80.3497 246.97 80.8313V81.6153C246.97 82.0969 246.576 82.493 246.092 82.493Z" fill="#699DEE"/>
<path d="M244.616 192.208H226.81C226.193 192.208 225.688 191.703 225.688 191.086V190.552C225.688 189.935 226.193 189.431 226.81 189.431H244.616C245.232 189.431 245.737 189.935 245.737 190.552V191.086C245.737 191.703 245.232 192.208 244.616 192.208Z" fill="#ED7D2B"/>
<path d="M244.831 199.32H226.593C226.095 199.32 225.688 198.911 225.688 198.413C225.688 197.914 226.095 197.508 226.593 197.508H244.831C245.33 197.508 245.737 197.914 245.737 198.413C245.737 198.911 245.33 199.32 244.831 199.32Z" fill="#ED7D2B"/>
<path d="M236.757 203.604H226.383C226.001 203.604 225.688 203.292 225.688 202.91V202.487C225.688 202.105 226.001 201.795 226.383 201.795H236.757C237.139 201.795 237.452 202.105 237.452 202.487V202.91C237.452 203.292 237.139 203.604 236.757 203.604Z" fill="#ED7D2B"/>
<path d="M257.904 203.604H241.137C240.659 203.604 240.267 203.212 240.267 202.735V202.664C240.267 202.185 240.659 201.795 241.137 201.795H257.904C258.384 201.795 258.774 202.185 258.774 202.664V202.735C258.774 203.212 258.384 203.604 257.904 203.604Z" fill="#ED7D2B"/>
<path d="M273.569 199.32H249.656C249.158 199.32 248.751 198.911 248.751 198.413C248.751 197.914 249.158 197.508 249.656 197.508H273.569C274.068 197.508 274.475 197.914 274.475 198.413C274.475 198.911 274.068 199.32 273.569 199.32Z" fill="#ED7D2B"/>
<path d="M244.831 207.889H226.593C226.095 207.889 225.688 207.483 225.688 206.984C225.688 206.486 226.095 206.079 226.593 206.079H244.831C245.33 206.079 245.737 206.486 245.737 206.984C245.737 207.483 245.33 207.889 244.831 207.889Z" fill="#ED7D2B"/>
<path d="M273.569 207.889H249.656C249.158 207.889 248.751 207.483 248.751 206.984C248.751 206.486 249.158 206.079 249.656 206.079H273.569C274.068 206.079 274.475 206.486 274.475 206.984C274.475 207.483 274.068 207.889 273.569 207.889Z" fill="#ED7D2B"/>
<path d="M244.831 212.351H226.593C226.095 212.351 225.688 211.944 225.688 211.446C225.688 210.948 226.095 210.541 226.593 210.541H244.831C245.33 210.541 245.737 210.948 245.737 211.446C245.737 211.944 245.33 212.351 244.831 212.351Z" fill="#ED7D2B"/>
<path d="M273.569 212.351H249.656C249.158 212.351 248.751 211.944 248.751 211.446C248.751 210.948 249.158 210.541 249.656 210.541H273.569C274.068 210.541 274.475 210.948 274.475 211.446C274.475 211.944 274.068 212.351 273.569 212.351Z" fill="#ED7D2B"/>
<path d="M261.969 192.208H249.183C248.653 192.208 248.221 191.776 248.221 191.247V190.39C248.221 189.862 248.653 189.431 249.183 189.431H261.969C262.499 189.431 262.931 189.862 262.931 190.39V191.247C262.931 191.776 262.499 192.208 261.969 192.208Z" fill="#ED7D2B"/>
<path d="M202.439 69.293L201.202 70.1812L199.958 69.3034C200.234 68.9156 200.689 68.6591 201.202 68.6591C201.711 68.6591 202.163 68.9093 202.439 69.293Z" fill="white"/>
<path d="M201.201 66.4969C199.957 66.4969 198.857 67.1162 198.192 68.0607L198.976 68.6111C199.471 67.9126 200.285 67.4581 201.201 67.4581C202.111 67.4581 202.921 67.9064 203.413 68.5944L204.196 68.0336C203.526 67.1016 202.432 66.4969 201.201 66.4969Z" fill="white"/>
<path d="M201.201 62.3874C198.569 62.3874 196.242 63.6947 194.832 65.6942L195.618 66.2446C196.854 64.4953 198.897 63.3486 201.201 63.3486C203.486 63.3486 205.517 64.4766 206.756 66.2029L207.535 65.6421C206.122 63.6718 203.812 62.3874 201.201 62.3874Z" fill="white"/>
<path d="M201.201 64.6371C199.329 64.6371 197.67 65.5629 196.66 66.9807L197.444 67.5311C198.281 66.3635 199.652 65.5983 201.201 65.5983C202.737 65.5983 204.1 66.351 204.939 67.5019L205.717 66.9453C204.705 65.5462 203.058 64.6371 201.201 64.6371Z" fill="white"/>
<path d="M194.254 200.239C194.254 202.055 194.865 203.725 195.896 205.06C196.238 205.504 196.626 205.908 197.053 206.269C197.476 206.628 197.938 206.942 198.43 207.207C199.542 207.804 200.811 208.141 202.162 208.141C203.85 208.141 205.412 207.614 206.696 206.715C206.761 206.671 206.824 206.623 206.888 206.578C207.469 206.144 207.988 205.635 208.431 205.06C209.462 203.725 210.073 202.055 210.073 200.239C210.073 195.877 206.532 192.339 202.162 192.339C197.795 192.339 194.254 195.877 194.254 200.239Z" fill="white"/>
<path d="M204.304 205.308L203.576 204.664C203.515 204.676 203.455 204.686 203.394 204.697C203.263 204.605 203.119 204.516 202.969 204.432C203.017 204.138 203.056 203.865 203.09 203.623C203.2 202.777 203.213 202.266 203.213 202.187C203.599 202.168 203.86 202.126 203.86 202.126C204.59 201.957 204.626 199.466 204.457 198.167C204.594 198.169 204.728 198.15 204.864 198.09C205.417 197.846 205.448 197.01 205.448 197.01C205.448 197.01 205.287 197.308 205.051 197.404C205.051 197.404 205.976 196.138 204.903 195.273C203.835 194.405 202.743 194.972 202.121 195.01C200.756 195.093 199.874 195.175 199.429 196.071C198.989 196.955 199.162 199.386 200.005 200.281C200.02 200.364 200.034 200.446 200.045 200.529C200.095 200.85 200.212 201.113 200.379 201.323C200.189 202.37 199.757 203.152 199.369 203.671C199.106 203.875 198.866 204.138 198.642 204.453C198.636 204.457 198.628 204.463 198.628 204.463C198.628 204.463 198.63 204.463 198.634 204.465C198.223 205.049 197.885 205.81 197.614 206.703C197.611 206.707 197.611 206.711 197.609 206.715C198.056 207.03 198.54 207.295 199.051 207.508C199.085 207.522 199.118 207.535 199.152 207.549C199.16 207.551 199.166 207.555 199.175 207.558C199.229 207.58 199.285 207.601 199.339 207.622C199.473 207.674 199.607 207.722 199.742 207.766C199.884 207.812 200.028 207.854 200.172 207.891C200.239 207.908 200.306 207.924 200.372 207.939C200.431 207.954 200.489 207.966 200.55 207.977C200.558 207.979 200.567 207.981 200.575 207.983C200.615 207.991 200.654 207.997 200.694 208.006C200.786 208.022 200.88 208.039 200.974 208.054C200.994 208.056 201.017 208.06 201.038 208.062C201.091 208.07 201.14 208.077 201.193 208.083C201.266 208.091 201.339 208.1 201.412 208.108C201.493 208.116 201.577 208.123 201.66 208.127C201.737 208.133 201.817 208.137 201.896 208.139C201.978 208.141 202.061 208.143 202.144 208.143C202.234 208.143 202.322 208.141 202.411 208.139C202.42 208.139 202.426 208.139 202.434 208.137C202.455 208.137 202.478 208.137 202.499 208.135C202.543 208.135 202.587 208.133 202.631 208.129C202.637 208.127 202.641 208.127 202.647 208.127C202.731 208.123 202.812 208.116 202.896 208.108C203.964 208.008 204.972 207.691 205.876 207.207C205.417 206.421 204.845 205.808 204.304 205.308Z" fill="#699DEE"/>
<path d="M271.905 246.168C271.905 247.994 272.521 249.677 273.558 251.019C273.903 251.466 274.293 251.874 274.723 252.237C276.111 253.413 277.908 254.122 279.869 254.122C281.652 254.122 283.298 253.538 284.625 252.548C285.21 252.112 285.734 251.597 286.178 251.019C287.215 249.677 287.831 247.994 287.831 246.168C287.831 241.772 284.266 238.211 279.869 238.211C275.47 238.211 271.905 241.772 271.905 246.168Z" fill="white"/>
<path d="M283.939 250.675C283.928 250.655 283.916 250.634 283.899 250.615C283.868 250.569 283.824 250.525 283.772 250.484L283.77 250.481C283.67 250.4 283.534 250.327 283.377 250.263C283.371 250.26 283.367 250.258 283.361 250.256C282.67 249.954 281.762 249.856 281.762 249.856C281.503 249.816 281.299 249.791 281.203 249.781C280.936 249.566 280.577 248.713 280.518 247.406L280.52 247.41C280.52 247.41 280.819 246.718 281.213 246.935C281.829 247.271 283.018 245.911 282.639 244.124C282.597 243.932 282.547 243.755 282.493 243.595C282.622 243.649 282.766 243.695 282.902 243.695C283.258 243.695 283.799 242.781 283.872 242.475C283.947 242.168 283.866 241.161 283.375 240.863C282.897 240.569 282.14 240.907 282.106 240.92C282.351 240.578 283.185 240.646 283.338 240.663C281.389 240.259 280.986 241.508 280.952 241.62C279.713 240.5 277.82 242.435 277.354 242.952C277.323 242.98 277.292 243.009 277.261 243.04C277.154 243.1 277.035 243.203 276.91 243.353C276.666 243.649 276.589 244.026 276.589 244.387C276.589 245.029 276.835 245.623 276.835 245.623C276.947 246.705 277.261 248.046 277.761 248.086C277.761 248.086 277.939 248.088 278.206 248.065C278.206 248.077 278.208 248.088 278.208 248.1C278.216 248.282 278.223 248.486 278.225 248.69V248.813C278.227 249.358 278.193 249.875 278.07 249.939C278.029 249.944 277.993 249.946 277.962 249.95C277.912 249.952 277.818 249.964 277.818 249.964C277.384 250.021 277.075 250.064 276.856 250.102C276.422 250.175 276.313 250.227 276.207 250.311C276.182 250.333 276.157 250.361 276.131 250.39C275.814 250.63 275.232 251.176 274.723 252.237C276.111 253.413 277.907 254.122 279.869 254.122C281.654 254.122 283.298 253.538 284.625 252.548C284.402 251.774 284.17 251.113 283.939 250.675Z" fill="#F99746"/>
<path d="M271.905 86.2752C271.905 88.1017 272.521 89.7843 273.558 91.1291C273.903 91.5753 274.293 91.9818 274.723 92.3467C276.111 93.5227 277.908 94.2316 279.869 94.2316C281.652 94.2316 283.298 93.6457 284.625 92.6553C285.21 92.2216 285.734 91.7066 286.178 91.1291C287.215 89.7843 287.831 88.1017 287.831 86.2752C287.831 81.8821 284.266 78.3209 279.869 78.3209C275.47 78.3209 271.905 81.8821 271.905 86.2752Z" fill="white"/>
<path d="M283.939 90.783C283.928 90.7621 283.916 90.7434 283.899 90.7225C283.868 90.6766 283.824 90.6329 283.772 90.5912L283.77 90.5891C283.67 90.5098 283.534 90.4369 283.377 90.3701C283.371 90.368 283.367 90.366 283.361 90.3639C282.67 90.0636 281.762 89.9636 281.762 89.9636V89.9657C281.503 89.924 281.299 89.8989 281.203 89.8885C281.138 89.8364 281.069 89.7509 281 89.6279V89.6258C280.779 89.238 280.562 88.5082 280.518 87.5137L280.52 87.5179C280.52 87.5179 280.819 86.8277 281.213 87.0425C281.829 87.3782 283.018 86.0208 282.639 84.234C282.597 84.0401 282.547 83.8628 282.493 83.7023C282.622 83.7565 282.766 83.8024 282.902 83.8024C283.258 83.8024 283.799 82.8892 283.872 82.5847C283.947 82.2762 283.866 81.2691 283.375 80.9709C282.897 80.679 282.14 81.0147 282.106 81.0293C282.351 80.6874 283.188 80.7562 283.338 80.7708C281.389 80.3663 280.986 81.6173 280.952 81.7278C279.713 80.6102 277.82 82.5451 277.354 83.0601C277.323 83.0872 277.292 83.1164 277.261 83.1477C277.154 83.2102 277.035 83.3103 276.91 83.4625C276.666 83.7565 276.589 84.1339 276.589 84.4946C276.589 85.1389 276.835 85.731 276.835 85.731C276.947 86.8152 277.261 88.1538 277.761 88.1934C277.761 88.1934 277.939 88.1955 278.206 88.1746C278.206 88.1851 278.208 88.1955 278.208 88.208C278.216 88.3894 278.223 88.5937 278.225 88.8001V88.9232C278.227 89.4673 278.193 89.9823 278.07 90.0491C278.029 90.0511 277.993 90.0553 277.962 90.0574C277.912 90.0616 277.818 90.072 277.818 90.072C277.384 90.1283 277.075 90.1721 276.856 90.2096C276.422 90.2846 276.313 90.3347 276.207 90.4181C276.182 90.4431 276.157 90.4702 276.131 90.4973C275.814 90.7371 275.232 91.2854 274.723 92.3467C274.798 92.4114 274.875 92.4739 274.954 92.5344C274.967 92.5448 274.982 92.5552 274.994 92.5656C275.053 92.6115 275.111 92.6553 275.171 92.697C275.213 92.7304 275.255 92.7616 275.299 92.7908C275.343 92.8221 275.386 92.8513 275.43 92.8784C275.493 92.9243 275.558 92.966 275.624 93.0056C275.668 93.0348 275.712 93.0619 275.758 93.089C275.812 93.1223 275.869 93.1557 275.925 93.187C275.987 93.2224 276.05 93.2579 276.113 93.2912C276.119 93.2933 276.123 93.2975 276.129 93.2996C276.131 93.3017 276.136 93.3037 276.14 93.3058H276.142C276.15 93.31 276.161 93.3162 276.169 93.3204C276.219 93.3475 276.269 93.3725 276.319 93.3976C276.323 93.3976 276.326 93.3997 276.33 93.4017C276.344 93.4101 276.361 93.4184 276.376 93.4247C276.403 93.4393 276.432 93.4539 276.461 93.4664C276.488 93.4789 276.515 93.4914 276.545 93.506C276.607 93.5352 276.674 93.5644 276.739 93.5915C276.803 93.6186 276.87 93.6457 276.935 93.6707C276.966 93.6832 276.995 93.6957 277.025 93.7061C277.054 93.7166 277.083 93.7291 277.114 93.7395C277.175 93.7624 277.238 93.7833 277.298 93.8041C277.363 93.8271 277.425 93.8458 277.49 93.8667C277.544 93.8834 277.599 93.9001 277.653 93.9167C277.659 93.9188 277.663 93.9188 277.67 93.9209C277.703 93.9313 277.738 93.9418 277.774 93.9501C277.964 94.0022 278.158 94.0481 278.354 94.0856C278.44 94.1023 278.525 94.119 278.611 94.1315C278.634 94.1357 278.655 94.1398 278.678 94.1419C278.682 94.1419 278.688 94.144 278.692 94.144C278.694 94.144 278.698 94.144 278.701 94.1461C278.757 94.1544 278.809 94.1607 278.868 94.1669C278.88 94.169 278.89 94.1711 278.903 94.1711C278.911 94.1732 278.92 94.1732 278.928 94.1753C278.98 94.1836 279.032 94.1878 279.082 94.1919C279.091 94.1919 279.101 94.194 279.11 94.194C279.124 94.1961 279.141 94.1982 279.158 94.2003C279.251 94.2086 279.343 94.2149 279.437 94.2191H279.452C279.481 94.2212 279.508 94.2232 279.539 94.2232C279.558 94.2232 279.575 94.2253 279.594 94.2253C279.686 94.2295 279.777 94.2316 279.869 94.2316C281.654 94.2316 283.298 93.6457 284.625 92.6553C284.402 91.8818 284.17 91.2229 283.939 90.783Z" fill="#F99746"/>
<path d="M379.966 402.165L351.285 417H332.191C327.587 413.916 303.677 397.622 293.783 385.475C291.688 382.9 284.018 360.715 278.125 342.703V342.695C278.907 345.086 295.354 380.083 300.038 384.061C304.721 388.037 329.309 411.2 336.1 410.964C342.678 410.739 377.697 402.686 379.868 402.188C379.901 402.182 379.933 402.174 379.966 402.165Z" fill="#EFA26F"/>
<path d="M437.674 417H334.274C339.46 414.967 359.301 407.394 379.868 402.188C379.901 402.182 379.932 402.173 379.966 402.165C397.63 397.701 415.813 394.995 425.689 399.054L425.76 399.161L437.674 417Z" fill="#D2E3FC"/>
<path d="M271.091 280.551C271.094 280.551 271.096 280.551 271.1 280.547C272.84 279.909 275.288 279.488 276.478 281.475C278.331 284.565 271.448 311.828 270.589 315.258L271.091 280.551Z" fill="#EFA26F"/>
<path d="M271.626 265.892L271.035 282.382C271.035 282.382 274.506 282.947 276.478 281.475C278.452 280.003 277.407 265.698 271.626 265.892Z" fill="#FFC197"/>
<path d="M202.164 361.385C192.228 363.422 170.813 355.624 170.813 355.624L174.267 322.293L150.068 349.98C137.752 345.401 118.492 333.454 107.048 326.019C136.373 322.825 158.268 293.912 158.268 293.912C178.597 304.913 201.543 311.338 201.543 311.338C201.536 331.148 202.164 361.385 202.164 361.385Z" fill="#CBE1FD"/>
<path d="M133.98 331.11C134 328.888 135.82 327.103 138.045 327.124C140.269 327.145 142.056 328.963 142.035 331.186C142.015 333.408 140.195 335.193 137.97 335.172C135.746 335.151 133.959 333.333 133.98 331.11Z" fill="#F99746"/>
</svg>
