<svg width="774" height="516" viewBox="0 0 774 516" fill="none" xmlns="http://www.w3.org/2000/svg">
<path d="M0 516H774V6.10352e-05H0V516Z" fill="white"/>
<path d="M677.792 459.439C640.79 459.439 101.758 459.57 101.447 458.608L101.394 458.484C101.394 458.484 101.342 458.365 101.342 458.306C101.135 457.824 18.2889 322.309 147.084 227.969C197.478 191.057 143.931 166.689 184.004 125.597C210.463 98.4658 238.312 104.168 266.93 109.869C288.125 114.09 309.74 118.311 331.528 109.201C340.576 105.421 349.655 99.3379 358.745 90.0008C363.861 84.7531 369.47 80.1607 375.471 76.1953C376.392 75.5864 377.321 74.9904 378.26 74.4124C381.856 72.1962 385.582 70.1916 389.421 68.3907C391.998 67.1808 394.625 66.0636 397.303 65.0368C401.549 63.4036 405.912 61.9975 410.365 60.8081C416.691 59.1157 423.206 57.8592 429.847 57.0078C432.744 56.6337 435.665 56.3421 438.608 56.1202C495.83 51.8426 560.224 75.8985 593.457 111.056C600.147 118.136 630.571 154.769 606.587 205.12C591.445 236.911 654.88 267.275 677.421 303.576C734.731 395.873 678.314 458.236 677.792 459.439Z" fill="#EBF3FA"/>
<path d="M125.043 458.59H149.425C150.732 457.48 148.521 454.962 146.212 454.795C145.208 454.717 143.94 454.929 142.49 455.233C142.154 450.778 140.238 430.744 133.017 431.549C124.897 432.449 133.017 440.372 135.312 445.06C137.013 448.536 138.806 453.518 139.626 455.868C138.967 456.01 138.284 456.149 137.587 456.278C136.511 452.973 132.506 441.859 127.414 442.506C121.435 443.265 123.838 447.72 128.076 450.367C131.185 452.313 135.003 455.076 136.817 456.412C135.28 456.663 133.676 456.833 132.048 456.794C127.872 456.696 125.833 457.927 125.043 458.59Z" fill="#A8D29F"/>
<path d="M335.911 240.91C323.323 211.165 294.148 172.904 293.813 163.833C293.808 163.742 293.805 163.652 293.805 163.564C293.73 160.05 296.602 157.739 299.556 157.739C301.07 157.739 302.608 158.348 303.782 159.715C329.84 190.058 335.911 240.91 335.911 240.91Z" fill="#DBE7FB"/>
<path d="M339.077 255.466C313.192 222.749 263.731 185.12 260.199 173.941C258.873 169.751 259.404 167.065 260.583 165.347C261.716 163.701 263.563 162.842 265.452 162.842C266.592 162.842 267.745 163.154 268.764 163.802C313.112 191.908 339.077 255.466 339.077 255.466Z" fill="#DBE7FB"/>
<path d="M345.547 364.51C345.547 364.51 349.272 333.305 365.263 314.682C365.983 313.841 366.927 313.47 367.856 313.47C369.67 313.47 371.432 314.889 371.386 317.043C371.386 317.097 371.383 317.154 371.38 317.208C371.174 322.776 353.271 346.257 345.547 364.51Z" fill="#DBE7FB"/>
<path d="M343.602 373.445C343.602 373.445 359.536 334.44 386.752 317.19C387.379 316.793 388.086 316.6 388.788 316.6C389.944 316.6 391.079 317.129 391.773 318.137C392.498 319.193 392.823 320.841 392.01 323.413C389.84 330.274 359.487 353.367 343.602 373.445Z" fill="#DBE7FB"/>
<path d="M236.091 439.374C235.153 439.374 234.198 439.361 233.231 439.335C213.864 438.796 221.164 431.951 229.835 421.719C238.507 411.484 260.007 410.264 265.696 405.873C269.47 402.963 266.483 401.164 260.445 401.164C257.381 401.164 253.531 401.626 249.381 402.643C237.054 405.659 232.869 419.173 213.017 424.415C211.648 424.776 210.272 424.947 208.894 424.947C190.289 424.947 171.551 394.255 171.551 394.255C172.691 394.415 173.885 394.487 175.119 394.487C189.736 394.487 209.905 384.1 210.061 379.528C210.108 378.153 207.314 377.666 203.12 377.666C197.922 377.666 190.571 378.416 183.821 379.17C177.069 379.921 170.917 380.674 168.114 380.674C167.816 380.674 167.555 380.666 167.336 380.648C161.336 380.155 149.354 370.292 151.799 346.215C154.093 323.628 189.508 322.931 193.883 322.931C194.172 322.931 194.326 322.934 194.326 322.934C194.326 322.934 227.103 358.615 235.121 358.615C235.155 358.615 235.189 358.615 235.222 358.612C243.063 358.308 212.968 322.327 212.968 322.327C215.013 321.785 217.57 321.551 220.456 321.551C238.248 321.551 268.557 330.434 268.557 330.434C268.557 330.434 273.665 375.738 280.92 375.736C281.091 375.736 281.261 375.713 281.434 375.661C288.957 373.434 274.55 333.886 274.55 333.886C289.669 335.834 305.882 350.423 305.882 350.423C327.198 375.026 294.507 401.128 294.507 401.128C294.507 401.128 286.54 439.377 236.091 439.374Z" fill="#D9E5FC"/>
<path d="M536.242 345.655C531.712 345.655 528.508 343.981 527.22 342.299C524.687 338.996 514.978 315.892 511.619 315.892C511.482 315.892 511.353 315.931 511.24 316.011C508.304 318.047 510.409 336.989 517.341 345.054C517.341 345.054 517.081 345.062 516.606 345.062C511.988 345.062 487.065 344.466 482.924 331.723C478.358 317.667 484.903 309.865 481.923 301.23C479.764 294.976 476.598 290.559 474.851 290.559C474.188 290.559 473.726 291.199 473.608 292.618C473.169 297.77 480.814 311.259 478.001 320.495C476.229 326.313 475.112 331.241 472.527 331.241C471.007 331.241 468.982 329.535 466.017 325.309C458.012 313.888 449.864 290.693 457.555 282.014C457.89 281.635 458.21 281.274 458.517 280.928C457.839 281.547 457.555 282.014 457.555 282.014C455.205 280.288 447.271 279.607 441.293 279.341H441.283C441.12 279.347 440.948 279.347 440.762 279.347C439.823 279.347 438.584 279.303 436.979 279.202H436.974H436.972C436.128 279.184 435.439 279.176 434.954 279.174H434.921H434.908C434.139 279.194 433.355 279.254 432.557 279.344L431.417 276.715C432.021 276.694 432.599 276.687 433.143 276.687C436.752 276.687 438.997 277.079 438.997 277.079C440.777 277.231 442.493 277.298 444.136 277.298C456.796 277.296 465.246 273.335 465.246 273.335C465.246 273.335 467.981 246.428 488.015 246.428C489.119 246.428 490.28 246.511 491.49 246.684C491.49 246.684 506.642 250.807 513.714 259.194C513.714 259.194 484.165 265.895 485.752 271.318C485.992 272.133 486.895 272.481 488.257 272.481C495.93 272.481 518.139 261.475 518.139 261.475C518.139 261.475 541.361 281.571 544.715 291.95C544.715 291.95 531.32 290.278 522.194 290.278C516.89 290.278 513.028 290.843 514.085 292.631C516.957 297.494 551.619 303.467 551.619 303.467C551.619 303.467 567.726 327.41 554.112 338.276C547.153 343.829 540.974 345.655 536.242 345.655Z" fill="#CCDBFD"/>
<path d="M440.186 236.449C441.445 232.886 442.733 230.771 442.733 230.771C448.37 219.365 447.74 209.612 447.74 209.612C447.74 209.612 425.785 198.312 435.258 181.596C435.258 181.596 442.944 171.266 451.466 168.379C451.466 168.379 447.73 192.943 452.343 193.356C452.377 193.358 452.41 193.361 452.444 193.361C456.92 193.358 454.534 165.685 454.534 165.685C454.534 165.685 475.821 154.509 485.125 154.509C485.344 154.509 485.556 154.516 485.759 154.527C485.759 154.527 472.921 178.131 476.91 178.131C476.969 178.131 477.034 178.126 477.101 178.113C481.675 177.378 496.619 152.71 496.619 152.71C496.619 152.71 500.865 151.769 506.051 151.769C512.958 151.769 521.528 153.438 523.936 161.235C528.151 174.886 522.367 181.986 518.951 182.969C515.535 183.952 493.419 184.439 494.095 187.29C494.609 189.452 503.417 192.319 511.237 192.319C513.721 192.319 516.108 192.027 518.094 191.336C518.094 191.336 509.962 213.629 498.167 213.629C497.981 213.629 497.795 213.622 497.607 213.611C485.509 212.886 481.515 205.554 474.031 205.242C473.548 205.221 473.073 205.211 472.612 205.211C465.891 205.211 461.407 207.252 464.965 209.009C468.767 210.887 481.353 209.094 487.56 214.006C493.768 218.921 498.76 221.906 487.645 224.597C484.02 225.474 479.436 225.988 474.753 225.988C465.073 225.988 454.972 223.792 452.062 218.085C450.039 219.362 447.144 225.214 445.148 229.698V229.705C444.866 230.464 444.417 231.519 443.749 232.948V232.951L443.747 232.954C443.481 233.593 443.269 234.117 443.12 234.486L443.112 234.512L443.107 234.522C442.893 235.113 442.704 235.73 442.534 236.367L440.186 236.449ZM451.52 217.025C451.788 217.729 452.062 218.085 452.062 218.085C451.874 217.716 451.693 217.363 451.52 217.025Z" fill="#CCDBFD"/>
<path d="M350.382 128.747C350.382 128.747 356.92 116.443 372.552 117.811C372.552 117.811 395.251 97.2997 419.454 115.076C419.454 115.076 445.181 110.672 464.235 118.889C476.939 124.369 481.136 130.115 481.136 130.115L350.382 128.747Z" fill="#F8FCFF"/>
<path d="M451.684 108.308C451.684 108.308 456.32 98.9869 467.406 100.021C467.406 100.021 483.503 84.4847 500.665 97.9523C500.665 97.9523 518.911 94.6138 532.422 100.839C541.431 104.991 544.406 109.343 544.406 109.343L451.684 108.308Z" fill="#F8FCFF"/>
<path d="M193.127 225.549C193.127 225.549 197.307 216.227 207.303 217.264C207.303 217.264 221.816 201.728 237.292 215.193C237.292 215.193 253.743 211.857 265.926 218.08C274.048 222.231 276.731 226.586 276.731 226.586L193.127 225.549Z" fill="#F8FCFF"/>
<path d="M404.588 352.653L416.569 283.147H351.06L339.076 352.653H404.588ZM289.546 394.196H253.594V352.653H296.733L308.318 283.147H268.374V241.604H315.508L326.295 178.892H369.035L358.251 241.604H423.76L434.147 178.892H476.887L466.103 241.604H501.652V283.147H458.912L447.328 352.653H487.274V394.196H440.137L428.953 458.507H386.213L397.397 394.196H331.886L321.101 458.507H278.359L289.546 394.196Z" fill="#F77D48"/>
<path d="M204.191 313.47C204.191 313.339 206.092 309.409 205.488 309.107C204.883 308.805 203.8 308.849 203.674 309.538C203.547 310.227 204.191 313.47 204.191 313.47Z" fill="#FFB27D"/>
<path d="M204.909 315.815C204.91 315.428 204.464 309.543 203.471 308.372C202.478 307.201 200.452 305.537 199.814 305.586C199.176 305.637 196.684 308.95 197.433 311.489C198.183 314.027 201.346 317.461 201.346 317.461L204.909 315.815Z" fill="#FFB27D"/>
<path d="M208.693 308.684L202.914 310.418C202.722 310.475 202.52 310.366 202.462 310.173L199.16 299.153C199.102 298.963 199.211 298.761 199.403 298.702L205.182 296.971C205.373 296.914 205.576 297.022 205.633 297.213L208.936 308.233C208.993 308.426 208.884 308.627 208.693 308.684Z" fill="#F1A34F"/>
<path d="M207.191 309.136L201.95 310.707C201.61 310.807 201.251 310.614 201.149 310.276L198.008 299.793C197.906 299.453 198.099 299.094 198.439 298.991L203.681 297.42C204.021 297.319 204.379 297.513 204.481 297.853L207.623 308.333C207.725 308.674 207.532 309.032 207.191 309.136Z" fill="#D86713"/>
<path d="M199.218 306.014C199.218 306.014 201.624 302.312 202.212 302.518C203.051 302.812 200.03 307.51 200.03 307.51C200.03 307.51 202.269 303.999 202.619 304.265C203.415 304.866 202.147 307.072 200.89 308.761C200.89 308.761 203.141 306.7 203.214 307.072C203.471 308.372 200.743 311.525 200.743 311.525L199.218 308.042V306.014Z" fill="#FFB27D"/>
<path d="M197.412 309.453C197.528 308.999 198.116 300.157 198.367 300.996C198.619 301.834 199.217 306.47 199.217 306.47L197.412 309.453Z" fill="#FFB27D"/>
<path d="M235.817 307.017C235.817 307.017 235.565 316.63 232.792 324.391C230.602 330.516 226.84 335.488 220.385 333.651C219.725 333.465 219.086 333.261 218.466 333.044L218.458 333.042C205.346 328.475 201.103 318.018 201.103 318.018C202.079 316.409 204.908 315.815 204.908 315.815C207.549 315.957 219.153 320.885 219.894 321.034C222.578 321.574 224.746 306.824 226.491 301.715C228.235 296.604 235.374 294.319 235.374 294.319L235.817 307.017Z" fill="#F99746"/>
<path d="M233.045 317.464L232.793 324.391C230.603 330.516 226.84 335.488 220.386 333.651C219.726 333.465 219.087 333.261 218.467 333.044C218.673 333.073 222.624 333.607 224.277 331.953C225.976 330.25 225.799 324.616 228.928 320.859C232.06 317.1 233.045 317.464 233.045 317.464Z" fill="#ED7D2B"/>
<path d="M233.407 444.147C233.407 444.147 236.634 447.093 236.004 449.186C235.374 451.278 232.462 452.674 232.068 455.231C231.675 457.79 230.101 459.183 228.684 459.183C227.267 459.183 221.929 459.183 221.929 459.183C221.929 459.183 220.886 457.385 223.405 456.841C225.924 456.299 226.873 453.293 226.716 450.504C226.558 447.713 226.952 443.992 226.952 443.992L232.305 442.754L233.407 444.147Z" fill="#0E2949"/>
<path d="M197.849 458.649H217.738C218.517 458.649 219.158 458.03 219.18 457.251C219.211 456.085 219.114 454.39 218.468 452.96C217.406 450.607 216.736 450.194 221.22 443.345C219.872 444.735 216.236 444.098 213.168 443.685C212.792 444.297 207.101 453.089 205.846 453.99C204.459 454.988 198.276 454.632 197.849 458.649Z" fill="#0E2949"/>
<path d="M228.84 348.354C228.84 348.354 214.42 375.565 210.501 390.547C207.459 402.178 226.022 447.176 226.022 447.176C226.022 447.176 227.539 447.075 230.014 446.103C232.444 445.148 233.369 442.583 233.369 442.583C233.369 442.583 232.269 410.411 228.511 394.846C227.668 391.35 232.597 380.08 240.917 373.909C249.236 367.735 252.701 347.877 247.748 346.533C242.795 345.191 228.84 348.354 228.84 348.354Z" fill="#3C92C6"/>
<path d="M241.184 340.63C241.184 340.63 226.025 396.2 221.426 408.68C216.827 421.159 209.534 447.645 209.534 447.645C209.534 447.645 214.145 449.81 220.049 448.786C220.049 448.786 242.216 416.311 243.181 401.959C243.627 395.326 265.926 369.025 263.438 351.876L241.184 340.63Z" fill="#63A8D1"/>
<path d="M263.403 357.97C263.403 357.97 260.178 359.595 254.475 360.073H254.469C247.94 360.622 238.16 359.66 226.25 353.029C226.25 353.029 222.927 350.292 227.009 338.648C230.098 329.835 231.604 311.254 235.374 294.319C235.374 294.319 247.607 290.48 257.421 293.798C264.92 296.334 264.174 307.843 265.56 319.825C265.689 320.944 265.836 322.067 266.008 323.186C268.057 336.303 263.403 357.97 263.403 357.97Z" fill="#F99746"/>
<path d="M231.062 269.249C231.062 269.249 239.411 255.657 245.876 262.652C245.876 262.652 250.103 263.73 252.525 270.312C254.995 277.028 251.148 282.956 248.578 281.999C246.931 281.383 246.16 284.223 246.16 284.223L231.062 269.249Z" fill="#233862"/>
<path d="M244.596 261.581C244.596 261.581 245.171 255.954 253.392 256.501C253.392 256.501 249.504 256.571 248.67 258.191C248.67 258.191 251.496 256.37 253.559 257.257C255.621 258.142 256.495 262.002 256.383 263.23C256.272 264.46 254.688 268.297 253.302 268.495C251.916 268.697 250.1 267.716 250.1 267.716L244.596 261.581Z" fill="#233862"/>
<path d="M248.738 293.454C247.966 291.396 246.816 289.234 245.892 282.662L245.399 282.835L237.1 285.758C237.1 285.758 237.681 288.418 238.052 290.949C238.204 291.986 238.313 293.834 238.383 295.446C238.456 297.097 240.078 297.252 241.727 297.175C246.116 296.974 248.534 295.335 248.738 293.454Z" fill="#FFB27D"/>
<path d="M237.1 285.758C237.1 285.758 237.681 288.418 238.052 290.949C242.813 290.126 244.712 285.402 245.399 282.835L237.1 285.758Z" fill="#E8945B"/>
<path d="M246.147 281.777C246.147 281.777 248.082 277.458 248.195 273.986C248.276 271.509 245.754 262.729 236.939 265.317C236.939 265.317 234.362 265.949 232.144 267.964C230.38 269.566 227.97 272.822 232.25 280.183L233.45 282.706L246.147 281.777Z" fill="#233862"/>
<path d="M235.849 288.387C235.849 288.387 247.186 286.942 246.179 279.896C245.171 272.848 245.956 267.917 238.674 268.542C231.393 269.163 230.374 272.053 230.138 274.489C229.903 276.921 232.874 288.581 235.849 288.387Z" fill="#FFB27D"/>
<path d="M233.498 269.112C233.498 269.112 237.787 276.93 242.715 277.469C247.644 278.006 249.522 276.434 249.522 276.434C249.522 276.434 245.459 274.063 243.974 269.117C243.974 269.117 235.267 264.84 233.498 269.112Z" fill="#233862"/>
<path d="M234.362 269.672C234.362 269.672 232.315 271.85 232.01 273.725C231.705 275.601 231.984 279.331 230.889 279.36C230.889 279.36 227.746 274.079 229.91 270.523C232.204 266.751 234.362 269.672 234.362 269.672Z" fill="#233862"/>
<path d="M233.973 270.012C233.973 270.012 237.427 278.351 243.823 280.258C243.823 280.258 237.06 275.805 235.727 270.165C234.394 264.522 233.973 270.012 233.973 270.012Z" fill="#233862"/>
<path d="M263.403 357.97C263.403 357.97 260.178 359.595 254.475 360.073H254.47C254.47 360.073 249.784 354.198 255.012 347.616C260.24 341.032 254.604 328.885 258.63 322.278C261.432 317.681 264.159 318.751 265.56 319.825C265.689 320.944 265.836 322.067 266.009 323.186C268.058 336.303 263.403 357.97 263.403 357.97Z" fill="#ED7D2B"/>
<path d="M283.973 348.205C283.973 348.205 284.667 349.825 285.637 349.933C287.224 350.109 290.242 351.437 290.717 351.718C292.002 352.482 291.914 355.893 290.629 356.215C289.345 356.535 288.702 353.672 284.688 352.905C283.325 352.645 281.341 353.586 280.539 350.323L283.973 348.205Z" fill="#FFB27D"/>
<path d="M257.421 293.797C269.097 298.091 269.527 318.772 274.731 327.882C280.1 337.276 285.327 349.639 285.327 349.639C285.327 349.639 285.232 350.008 283.23 350.581C281.821 350.986 280.35 350.816 280.35 350.816C280.35 350.816 269.321 340.836 266.323 336.902C263.328 332.964 256.261 314.703 256.261 314.703C256.261 314.703 252.787 292.092 257.421 293.797Z" fill="#F99746"/>
<path d="M280.828 351.133C280.828 351.133 281.112 352.521 282.833 353.646C284.554 354.771 285.934 355.893 286.102 355.199C286.267 354.502 285.142 353.751 284.876 352.467C284.608 351.182 280.828 351.133 280.828 351.133Z" fill="#FFB27D"/>
<path d="M463.931 337.105C458.569 335.96 452.976 337.583 449.008 341.365C447.259 343.034 445.339 345.119 443.575 347.583C439.201 353.687 447.573 359.732 446.462 361.799C445.347 363.868 442.767 365.501 443.897 369.82C445.024 374.139 452.47 379.745 454.898 379.993C479.501 382.521 490.177 368.958 481.952 361.646C473.729 354.335 477.083 343.728 470.409 339.608C468.345 338.336 466.08 337.565 463.931 337.105Z" fill="#162C51"/>
<path d="M451.074 375.689C451.074 375.689 428.623 386.564 424.418 386.381C420.212 386.198 393.925 376.941 393.925 376.941L394.583 381.399C394.583 381.399 414.583 392.901 421.575 393.553C428.458 394.196 451.995 387.377 454.268 385.935C456.539 384.495 457.677 377.147 451.074 375.689Z" fill="#ED985F"/>
<path d="M448.604 385.947C450.637 387.359 453.188 388.525 456.393 389.263C468.397 392.036 472.997 381.889 474.726 374.923C473.09 373.987 471.55 373.78 470.66 373.674C469.79 373.571 468.88 373.504 468.124 373.465C466.774 372.433 464.767 368.207 464.321 361.646L463.756 361.799L454.295 364.386C454.295 364.386 454.728 367.395 454.94 370.238C455.105 372.462 455.131 374.588 454.71 375.109C453.97 375.269 453.529 375.375 453.529 375.375L453.524 375.382C453.397 375.591 450.652 380.106 448.604 385.947Z" fill="#FFB27D"/>
<path d="M454.294 364.389C454.294 364.389 454.727 367.394 454.939 370.24C460.3 369.704 462.787 364.598 463.755 361.798L454.294 364.389Z" fill="#ED985F"/>
<path d="M452.692 367.211C452.692 367.211 465.417 366.51 464.857 358.594C464.3 350.676 465.564 345.253 457.416 345.367C449.269 345.48 447.906 348.612 447.45 351.301C446.993 353.989 449.369 367.191 452.692 367.211Z" fill="#FFB27D"/>
<path d="M447.511 346.871C449.304 344.35 450.826 344.766 451.711 345.423C458.383 341.104 463.265 346.43 463.265 346.43C464.521 352.049 468.85 355.011 468.85 355.011C468.85 355.011 466.595 356.814 461.198 355.617C454.294 354.087 451.923 348.099 451.6 347.178C450.873 347.931 449.936 348.408 449.216 350.042C448.363 351.979 447.826 353.104 447.813 356.288C447.813 356.288 444.82 350.656 447.511 346.871Z" fill="#162C51"/>
<path d="M478.35 411.817C479.498 405.945 483.244 382.475 479.498 374.923C478.154 372.211 472.872 371.966 467.08 372.204C465.277 373.367 458.409 377.766 455.589 377.217C455.558 377.211 455.504 377.199 455.429 377.181C454.1 376.848 453.6 375.914 454.709 375.109C454.709 375.106 452.165 375.289 448.602 375.96C446.59 376.339 441.063 379.73 441.063 379.73C441.063 379.73 443.569 383.628 447.599 385.333C446.915 391.463 447.934 394.17 454.294 408.329C459.668 420.3 453.569 431.077 453.569 431.077C453.569 431.077 485.207 456.515 485.383 443.564C485.517 433.811 476.882 419.325 478.35 411.817Z" fill="#8CA0F4"/>
<path d="M452 458.737C450.279 458.544 448.731 457.602 447.769 456.162C447.617 455.933 447.452 455.688 447.279 455.424C443.677 449.973 442.276 433.278 434.175 415.489C432.204 411.159 425.119 410.38 423.189 405.486C423.189 405.486 418.434 389.619 432.286 389.149C446.138 388.682 469.384 433.298 469.751 437.978C470.107 442.511 478.91 461.774 452 458.737Z" fill="#162C4F"/>
<path d="M396.945 458.647H416.662C416.662 458.647 417.397 455.417 416.104 453.221C414.959 451.276 415.397 450.169 416.246 448.562C415.351 448.936 414.198 449.279 412.926 449.204C411.943 449.145 410.903 448.688 409.992 448.144C409.144 449.137 405.511 453.365 404.376 454.204C403.088 455.153 397.343 454.815 396.945 458.647Z" fill="#AA3C3C"/>
<path d="M422.738 393.736C421.551 402.637 416.915 430.728 408.736 444.433C406.102 448.85 415.38 451.33 415.431 451.317C416.675 450.989 418.749 449.005 419.704 448.143C426.342 442.16 439.82 425.218 439.82 411.634C439.82 405.011 439.936 392.361 435.122 389.147C432.155 387.168 423.21 390.202 422.738 393.736Z" fill="#162C4F"/>
<path d="M461.63 458.758C461.63 458.758 460.629 457.261 459.996 455.035C458.936 451.317 458.559 448.61 456.524 442.816C454.385 436.735 451.849 429.253 448.678 421.469C447.7 419.064 446.66 416.634 445.556 414.203C443.582 409.874 438.154 410.473 436.222 405.576C436.222 405.576 428.688 388.607 442.54 388.138C456.392 387.671 482.711 433.535 484.225 437.978C485.879 442.839 491.831 463.417 461.63 458.758Z" fill="#2B478B"/>
<path d="M411.42 458.647H431.134C431.134 458.647 431.872 455.417 430.577 453.221C429.431 451.276 429.87 450.169 430.719 448.562C429.826 448.936 428.67 449.279 427.398 449.204C426.415 449.145 425.378 448.688 424.467 448.144C423.618 449.137 419.983 453.365 418.848 454.204C417.56 455.153 411.815 454.815 411.42 458.647Z" fill="#C1514C"/>
<path d="M456.523 442.816C454.385 436.735 451.849 429.253 448.678 421.469C449.506 415.571 451.291 410.411 454.294 408.329C454.294 408.329 461.58 430.901 456.523 442.816Z" fill="#233862"/>
<path d="M434.248 393.107C433.061 402.005 431.389 430.728 423.211 444.433C420.574 448.85 429.854 451.33 429.903 451.317C431.147 450.989 433.221 449.005 434.176 448.143C440.817 442.16 454.294 425.218 454.294 411.634C454.294 405.011 446.521 392.893 441.704 389.678C438.74 387.699 434.72 389.572 434.248 393.107Z" fill="#2B478B"/>
<path d="M391.569 365.472L411.76 363.328C412.348 363.264 412.906 363.607 413.117 364.159L420.341 383.14C420.656 383.974 420.065 384.871 419.175 384.908L399.141 385.715C398.597 385.738 398.096 385.418 397.885 384.915L390.506 367.271C390.168 366.466 390.702 365.563 391.569 365.472Z" fill="#233862"/>
<path d="M389.817 365.656L410.006 363.512C410.594 363.447 411.151 363.79 411.363 364.342L418.587 383.326C418.904 384.157 418.311 385.055 417.421 385.091L397.387 385.898C396.843 385.922 396.342 385.602 396.131 385.099L388.752 367.454C388.417 366.649 388.948 365.749 389.817 365.656Z" fill="#2B478B"/>
<path d="M401.007 374.518C400.762 373.842 401.11 373.293 401.789 373.293C402.465 373.293 403.216 373.842 403.461 374.518C403.709 375.197 403.36 375.746 402.682 375.746C402.003 375.746 401.255 375.197 401.007 374.518Z" fill="#EBF3FA"/>
<path d="M390.421 367.449C390.3 367.116 390.47 366.845 390.803 366.845C391.136 366.845 391.505 367.116 391.626 367.449C391.747 367.782 391.574 368.052 391.241 368.052C390.909 368.052 390.542 367.782 390.421 367.449Z" fill="#EBF3FA"/>
<path d="M474.726 374.923C474.726 374.923 446.743 385.227 442.54 385.018C439.821 384.882 417.233 376.941 417.233 376.941L415.205 380.777C415.205 380.777 437.192 394.908 443.234 394.838C455.169 394.701 475.304 387.377 477.577 385.934C479.85 384.495 481.331 376.381 474.726 374.923Z" fill="#FFB27D"/>
<path d="M417.232 376.94C417.232 376.94 415.204 373.821 413.184 373.728C411.167 373.638 407.678 375.106 406.484 375.336C405.292 375.565 401.897 376.664 402.905 378.318C403.914 379.969 408.597 380.336 410.615 379.969C412.635 379.603 415.204 380.777 415.204 380.777L417.232 376.94Z" fill="#FFB27D"/>
<path d="M413.734 373.824C413.734 373.824 410.524 372.351 409.606 372.077C408.687 371.801 408.87 372.08 409.146 372.949C409.422 373.821 411.074 374.649 411.074 374.923C411.074 375.196 413.734 373.824 413.734 373.824Z" fill="#FFB27D"/>
<path d="M391.896 375.29C391.896 375.29 393.176 371.069 394.582 372.395C396.048 373.775 395.16 375.155 394.979 376.915C394.636 380.279 393.955 380.135 393.527 379.983C393.096 379.83 391.419 376.982 391.896 375.29Z" fill="#FFB27D"/>
<path d="M391.82 375.932C391.82 375.932 391.172 379.523 394.583 381.399L393.574 378.927L391.82 375.932Z" fill="#FFB27D"/>
<path d="M450.311 362.66C450.311 362.66 451.513 362.183 454.898 362.459C454.898 362.459 454.717 363.777 452.222 363.909C450.808 363.984 450.311 362.66 450.311 362.66Z" fill="white"/>
<path d="M460.308 380.006C460.308 380.006 462.81 387.929 471.407 389.732C471.407 389.732 485.6 385.359 478.533 375.689C478.533 375.689 471.546 370.496 460.308 380.006Z" fill="#8CA0F4"/>
<path d="M391.82 376.44C391.82 376.44 391.229 374.461 391.195 374.121C391.162 373.778 391.203 373.605 391.507 373.845C391.812 374.085 392.276 374.719 392.137 375.32C392 375.919 391.82 376.44 391.82 376.44Z" fill="#FFB27D"/>
<path d="M383.455 279.187C382.993 279.718 382.934 280.312 383.164 280.946L383.166 280.954C383.592 282.126 384.993 283.436 386.621 284.742C386.827 284.912 387.013 285.064 387.176 285.206C387.217 285.242 387.258 285.278 387.299 285.317C387.333 285.345 387.364 285.376 387.395 285.402C388.912 286.803 388.342 287.123 391.069 289.961C394.178 293.196 396.319 293.256 396.928 292.961C397.444 292.709 396.396 290.993 395.235 289.066C395.181 288.973 395.124 288.877 395.068 288.784C394.913 288.526 394.761 288.266 394.606 288.01C393.246 285.688 393.597 284.6 393.917 281.145C394.18 278.338 398.285 265.461 398.285 265.461L392.325 264.437C392.325 264.437 390.532 274.687 388.556 276.266C387.498 277.11 386.314 277.12 385.297 277.745C385.225 277.786 385.155 277.832 385.086 277.876C384.508 278.261 383.92 278.655 383.455 279.187Z" fill="#FFB27D"/>
<path d="M383.455 279.187C382.993 279.718 382.934 280.312 383.164 280.946L383.166 280.954C383.687 282.126 385.052 283.428 386.626 284.731C386.832 284.902 387.013 285.059 387.176 285.206C387.217 285.242 387.258 285.278 387.299 285.317C387.333 285.345 387.364 285.376 387.395 285.402C388.912 286.803 388.342 287.123 391.069 289.961C394.178 293.196 396.319 293.256 396.928 292.961C397.444 292.709 396.396 290.993 395.235 289.066C394.632 288.844 391.82 287.701 389.694 284.982C387.89 282.678 386.665 279.744 385.437 277.943C385.302 277.918 385.222 277.902 385.086 277.876C384.508 278.261 383.92 278.655 383.455 279.187Z" fill="#233862"/>
<path d="M431.506 275.466C431.874 277.306 434.496 276.999 437.424 276.282C440.355 275.567 439.658 276.418 443.828 275.957C447.997 275.495 449.259 273.939 449.385 273.32C449.501 272.77 447.44 272.577 445.231 272.321C444.953 272.29 444.674 272.257 444.395 272.221C441.9 271.909 440.074 270.299 437.806 268.978C435.659 267.724 432.458 262.623 432.458 262.623L426.74 263.075C426.74 263.075 429.741 267.631 430.899 269.612C431.583 270.779 431.547 272.319 431.462 273.511C431.418 274.156 431.377 274.819 431.506 275.466Z" fill="#FFB27D"/>
<path d="M437.423 276.282C440.354 275.567 439.658 276.418 443.827 275.957C447.996 275.495 449.258 273.939 449.384 273.32C449.5 272.77 447.439 272.577 445.23 272.321L445.21 272.363C445.21 272.363 442.71 274.138 439.237 274.22C436.409 274.287 433.414 273.477 431.461 273.511C431.417 274.156 431.376 274.819 431.505 275.466C431.874 277.306 434.495 276.999 437.423 276.282Z" fill="#233862"/>
<path d="M409.595 238.908L404.249 253.289L397.271 272.069C397.271 272.069 395.377 272.252 393.566 271.728C391.894 271.246 389.979 269.984 389.979 269.984C389.979 269.984 391.917 249.821 395.532 238.248C396.458 235.275 397.495 232.873 398.641 231.519C404.244 224.899 409.595 238.908 409.595 238.908Z" fill="#3C92C6"/>
<path d="M404.159 216.067C401.117 215.084 393.179 216.052 384.569 217.61C382.191 218.041 379.791 216.955 378.54 214.886L356.871 213.193C356.871 213.193 349.719 229.05 353.635 239.156C354.211 240.639 355.472 241.568 357.42 241.599C357.42 241.599 370.516 241.617 374.703 241.617C385.48 241.617 397.511 234.207 399.066 233.898C401.613 233.387 402.632 238.482 405.178 243.831C407.727 249.182 429.123 267.52 429.123 267.52C429.123 267.52 432.41 267.554 433.77 267.043C435.23 266.496 435.767 265.784 435.767 265.784C435.767 265.784 412.057 218.614 404.159 216.067Z" fill="#63A8D1"/>
<path d="M376.236 151.255C374.629 150.298 373.06 150.151 372.098 150.179C371.43 150.197 370.762 150.153 370.098 150.058C361.83 148.845 356.85 160.858 356.556 164.485C356.022 171.15 352.498 172.166 347.534 176.34C337.585 184.707 340.503 194.431 345.942 198.046C349.208 200.213 354.962 198.043 354.962 198.043C355.042 198.1 370.697 189.295 378.411 185.045C389.98 183.402 380.885 154.021 376.236 151.255Z" fill="#152949"/>
<path d="M371.947 181.428C371.98 181.451 368.149 182.759 365.587 181.624C363.177 180.559 361.353 176.596 361.389 176.593C362.486 176.542 363.688 175.584 364.614 169.297L365.081 169.462L372.93 172.287C372.93 172.287 372.359 174.805 371.993 177.202C371.683 179.215 371.516 181.144 371.947 181.428Z" fill="#FFB27D"/>
<path d="M372.928 172.287C372.928 172.287 372.616 173.647 372.157 176.183C367.65 175.373 365.715 171.9 365.08 169.462L372.928 172.287Z" fill="#ED975D"/>
<path d="M374.098 174.787C374.098 174.787 363.36 173.345 364.361 166.673C365.362 159.999 364.65 155.319 371.546 155.958C378.445 156.596 379.392 159.341 379.598 161.65C379.807 163.959 376.915 174.989 374.098 174.787Z" fill="#FFB27D"/>
<path d="M379.208 157.992C379.208 157.992 372.335 163.915 367.658 164.393C362.983 164.87 361.213 163.368 361.213 163.368C361.213 163.368 363.968 161.083 365.627 157.391C366.117 156.302 367.149 155.554 368.339 155.45C371.677 155.164 378.006 155.032 379.208 157.992Z" fill="#152949"/>
<path d="M374.91 157.462C374.91 157.462 377.211 159.684 377.934 161.332C378.633 162.924 378.842 166.73 378.287 168.242C378.287 168.242 381.868 161.276 379.841 157.891C377.691 154.302 374.91 157.462 374.91 157.462Z" fill="#233862"/>
<path d="M380.986 197.246C380.661 218.98 380.896 214.439 378.52 216.501C377.947 216.999 376.337 217.293 374.216 217.435C367.552 217.876 355.837 216.779 355.39 215.546C353.852 211.284 354.939 209.96 353.656 203.436C353.522 202.742 353.357 201.991 353.164 201.173C352.093 196.691 351.053 195.167 354.846 187.968C358.288 181.446 361.861 176.155 362.183 176.346C371.26 181.733 371.992 177.205 371.992 177.205C371.992 177.205 381.146 186.645 380.986 197.246Z" fill="#20599B"/>
<path d="M404.25 253.289L397.271 272.069C397.271 272.069 395.377 272.252 393.566 271.728C391.894 271.246 389.979 269.984 389.979 269.984C389.979 269.984 391.917 249.821 395.532 238.248L404.25 253.289Z" fill="#63A8D1"/>
<path d="M371.992 177.202C371.992 177.202 381.332 178.786 382.428 182.808C383.525 186.828 387.137 211.237 387.137 211.237C387.137 211.237 384.503 213.81 382.31 211.617C380.114 209.424 375.406 188.779 375.406 188.779L371.992 177.202Z" fill="#20599B"/>
<path d="M374.216 217.435C367.552 217.876 355.836 216.779 355.39 215.546C353.852 211.284 354.939 209.96 353.656 203.436L356.871 194.385C356.871 194.385 356.339 204.465 359.312 207.115C362.281 209.767 371.482 212.233 372.926 214.447C373.626 215.51 374.082 216.578 374.216 217.435Z" fill="#20599B"/>
<path d="M366.579 213.193C366.579 213.193 373.156 211.73 374.216 212.313C375.276 212.896 377.869 215.022 378.194 215.763C378.519 216.501 375.834 215.2 374.959 214.966C374.394 214.813 372.903 215.332 372.165 215.577C369.064 216.612 367.162 216.08 367.162 216.08L366.579 213.193Z" fill="#FFB27D"/>
<path d="M362.177 176.34C362.177 176.34 353.348 176.885 350.291 181.147C345.99 187.145 337.456 212.718 342.345 216.129C347.853 219.971 367.415 217.135 367.415 217.135C367.415 217.135 368.067 214.091 367.162 212.62C366.254 211.15 351.537 208.771 350.859 208.092C350.178 207.411 359.349 194.847 359.349 192.809C359.349 190.77 362.177 176.34 362.177 176.34Z" fill="#20599B"/>
<path d="M374.533 214.143C374.533 214.143 375.911 215.92 376.362 216.132C376.814 216.346 377.108 216.292 377.108 216.292L376.179 214.622L374.533 214.143Z" fill="#FFB27D"/>
<path d="M374.216 212.313L378.223 214.259C378.223 214.259 378.052 214.537 377.557 214.517C377.064 214.494 375.821 214.037 375.821 214.037L374.216 212.313Z" fill="#FFB27D"/>
<path d="M408.419 216.885H366.579V217.809H408.048L408.419 216.885Z" fill="#F99746"/>
<path d="M376.363 217.809H408.048L417.581 194.109H385.945L376.363 217.809Z" fill="#F99746"/>
<path d="M400.049 205.959C400.289 205.126 399.807 204.45 398.973 204.45C398.14 204.45 397.271 205.126 397.033 205.959C396.793 206.792 397.276 207.468 398.109 207.468C398.942 207.468 399.812 206.792 400.049 205.959Z" fill="white"/>
<path d="M623.594 287.701C622.665 290.199 621.058 293.096 619.368 293.816C617.453 294.634 616.653 295.787 616.653 295.787L615.108 294.889L613.261 293.816C613.261 293.816 613.305 293.612 613.395 293.277C613.483 292.944 613.622 292.482 613.81 291.968C613.81 291.968 614.375 291.241 614.03 290.325C613.681 289.412 613.751 287.998 614.344 287.136C614.935 286.277 615.508 284.156 615.864 284.218C616.728 284.368 615.441 287.283 615.81 287.822C616.143 288.313 616.563 288.145 616.641 288.106L616.653 288.098C619.076 287.033 622.015 281.29 623.315 282.066C623.803 282.355 623.989 286.638 623.594 287.701Z" fill="#FFB27D"/>
<path d="M615.211 291.179L618.247 293.312C618.462 293.462 618.761 293.41 618.911 293.196L626.687 282.133C626.836 281.919 626.785 281.62 626.57 281.468L623.534 279.337C623.32 279.184 623.02 279.239 622.871 279.453L615.097 290.516C614.945 290.73 614.997 291.027 615.211 291.179Z" fill="#2B478B"/>
<path d="M617.99 293.132L619.77 294.381C619.932 294.497 620.159 294.455 620.276 294.293L628.181 283.044C628.294 282.882 628.255 282.654 628.093 282.538L626.313 281.29C626.15 281.174 625.923 281.215 625.807 281.377L617.902 292.626C617.788 292.789 617.827 293.016 617.99 293.132Z" fill="#233862"/>
<path d="M571.674 275.304C571.674 275.304 587.115 302.239 592.719 307.195L613.261 291.881C613.261 291.881 616.244 292.794 617.549 295.787C617.549 295.787 605.075 321.202 592.791 322.281C580.508 323.357 563.269 291.816 563.269 291.816L571.674 275.304Z" fill="#3C92C6"/>
<path d="M536.725 458.507H527.804C526.679 457.896 525.678 456.5 525.363 454.418C524.927 451.544 521.705 449.978 521.008 447.625C520.311 445.274 523.882 441.964 523.882 441.964L524.478 441.195L525.1 440.396L531.024 441.791C531.024 441.791 531.171 443.203 531.258 444.998C531.323 446.296 531.356 447.793 531.284 449.106C531.109 452.24 532.161 455.618 534.948 456.229C537.007 456.678 536.914 457.901 536.725 458.507Z" fill="#162C4F"/>
<path d="M588.511 458.507H568.103C567.122 457.31 567.484 452.891 567.633 451.446C567.664 451.157 567.685 450.987 567.685 450.987C567.685 450.987 574.654 445.414 575.611 449.681C575.639 449.815 575.675 449.947 575.714 450.076C576.919 454.067 582.327 455.881 585.451 456.387C587.481 456.717 588.232 457.772 588.511 458.507Z" fill="#162C4F"/>
<path d="M584.623 344.603C584.623 344.603 583.565 357.805 582.319 373.674C580.629 395.23 578.598 421.709 578.397 426.724C578.049 435.434 576.653 449.366 576.653 449.366C576.653 449.366 573.345 452.676 566.725 451.283C566.725 451.283 560.827 431.391 559.143 410.349C559.114 410.003 559.089 409.655 559.063 409.309C557.497 387.885 555.059 342.774 555.059 342.774L584.623 344.603Z" fill="#F99746"/>
<path d="M584.623 344.603C584.623 344.603 583.565 357.805 582.319 373.674L559.143 410.349C559.114 410.003 559.089 409.655 559.063 409.309C557.497 387.885 555.059 342.774 555.059 342.774L584.623 344.603Z" fill="#ED7D2B"/>
<path d="M579.791 346.171C579.791 346.171 560.719 393.981 548.178 416.448C535.639 438.917 531.72 445.187 531.72 445.187C531.72 445.187 524.535 442.312 523.882 440.354C523.882 440.354 528.676 396.979 537.073 386.404C541.821 380.431 547.393 362.5 547.657 356.231C547.917 349.959 549.354 337.549 549.354 337.549L579.791 346.171Z" fill="#F99746"/>
<path d="M575.043 276.475C567.589 278.826 555.293 272.195 555.293 272.195C555.293 272.195 561.565 267.322 561.206 256.599L566.967 261.243L570.881 264.398C570.881 264.398 570.866 266.259 570.438 269.517C570.324 270.374 570.12 271.71 570.763 272.396C573.258 275.062 575.043 276.475 575.043 276.475Z" fill="#FFB27D"/>
<path d="M570.882 264.398C570.882 264.398 570.866 266.259 570.438 269.517C566.101 268.771 561.181 261.762 561.181 261.762C563.389 261.124 565.324 261.011 566.968 261.243L570.882 264.398Z" fill="#ED975D"/>
<path d="M573.162 264.22C573.162 264.22 560.85 266.266 559.697 258.58C558.541 250.895 556.173 245.982 563.985 244.352C571.795 242.721 573.766 245.425 574.777 247.897C575.786 250.366 576.333 263.49 573.162 264.22Z" fill="#FFB27D"/>
<path d="M585.443 345.705C585.219 345.89 584.958 346.001 584.661 346.001C581.862 345.965 573.702 347.518 566.795 346.809C560.974 346.249 555.822 344.525 550.288 342.046C549.553 341.716 547.863 340.813 547.899 339.992C547.925 339.092 548.015 337.789 548.126 336.146C548.518 330.434 549.202 320.611 548.536 309.278C548.415 307.167 548.353 305.075 548.345 303.013C548.289 287.652 551.333 274.143 557.453 269.569C557.976 269.195 561.186 270.763 564.135 272.218C566.859 273.563 568.996 273.704 571.57 273.183L574.734 275.467C577.868 278.377 581.302 282.332 582.793 288.341C584.063 293.454 584.808 302.673 585.219 312.226C585.407 316.556 585.557 320.924 585.595 325.065V325.214C585.631 325.624 585.631 326.073 585.631 326.484C585.781 337.118 585.631 345.552 585.443 345.705Z" fill="#63A8D1"/>
<path d="M548.126 336.146C548.518 330.433 549.202 320.611 548.536 309.277C548.415 307.167 548.353 305.075 548.345 303.013C550.894 296.829 552.979 292.342 552.979 292.342H559.406C559.406 292.342 564.117 324.523 548.126 336.146Z" fill="#3C92C6"/>
<path d="M515.208 372.616L542.616 376.523C546.184 377.031 549.517 374.528 550.026 370.96L551.718 359.084C552.226 355.516 549.724 352.183 546.158 351.675L518.751 347.768C515.183 347.26 511.849 349.763 511.341 353.331L509.649 365.207C509.14 368.775 511.643 372.108 515.208 372.616Z" fill="#233862"/>
<path d="M526.297 346.197C526.348 345.839 526.63 345.568 526.97 345.514C527.048 345.501 527.13 345.498 527.213 345.511L528.431 345.681L532.94 346.326L535.399 346.677C535.84 346.739 536.15 347.152 536.085 347.593L535.722 350.155L525.931 348.759L526.297 346.197ZM547.706 355.214C546.934 353.287 545.273 351.765 543.165 351.249H543.162L543.157 351.246C542.951 351.197 542.742 351.153 542.525 351.125L537.068 350.348L537.432 347.784C537.515 347.214 537.368 346.641 537.019 346.177C536.671 345.712 536.163 345.41 535.59 345.33L534.166 345.127L528.436 344.311L527.404 344.164C526.219 343.997 525.118 344.82 524.95 346.006L524.586 348.568L515.164 347.227C511.586 346.716 508.24 349.226 507.729 352.807L506.016 364.822C505.507 368.403 508.018 371.75 511.599 372.26L538.957 376.159C539.439 376.228 539.917 376.241 540.384 376.205H540.389C541.137 376.149 541.857 375.96 542.522 375.666C544.535 374.779 546.062 372.903 546.395 370.576L548.106 358.561C548.273 357.389 548.116 356.246 547.706 355.214Z" fill="#2B478B"/>
<path d="M535.709 336.796C535.709 336.796 534.422 338.112 534.554 339.936C534.886 344.471 534.347 346.528 531.429 346.995C531.429 346.995 527.967 347.645 527.923 345.612C527.923 345.612 529.551 345.625 529.21 342.774C528.816 339.487 528.857 339.456 531.014 337.74L532.443 335.379L535.709 336.796Z" fill="#FFB27D"/>
<path d="M532.39 338.721C534.704 339.172 537.212 338.989 537.212 338.989C537.212 338.989 544.083 317.768 544.965 315.828C545.85 313.891 565.373 290.944 565.373 290.944L557.241 270.59C557.241 270.59 536.123 305.862 533.982 310.818C530.437 319.007 529.209 337.369 529.209 337.369C529.209 337.369 530.571 338.367 532.39 338.721Z" fill="#63A8D1"/>
<path d="M559.687 257.84C559.687 257.84 560.949 257.628 560.745 255.889C560.541 254.15 560.544 251.875 561.96 252.301C563.374 252.724 563.444 253.856 564.027 253.193C564.607 252.533 564.617 249.746 568.825 249.553C573.036 249.359 574.747 250.822 576.705 249.963C578.66 249.101 578.764 246.14 578.764 246.14C578.764 246.14 578.209 247.197 577.368 247.533C577.368 247.533 580.634 243.067 576.852 240.004C573.072 236.942 569.215 238.947 567.027 239.078C562.208 239.37 559.094 239.661 557.517 242.827C555.943 245.995 556.594 254.79 559.687 257.84Z" fill="#2B478B"/>
<path d="M533.779 339.536C533.779 339.536 535.167 340.981 535.255 341.582C535.534 343.511 536.179 344.345 535.856 344.554C535.185 344.99 534.295 343.561 533.872 342.281C533.446 340.999 533.779 339.536 533.779 339.536Z" fill="#FFB27D"/>
<path d="M632.683 458.512H614.311C613.328 457.677 614.995 455.78 616.734 455.651C617.49 455.594 618.447 455.754 619.538 455.984C619.791 452.627 621.236 437.532 626.677 438.138C632.794 438.817 626.677 444.784 624.946 448.319C623.666 450.935 622.314 454.689 621.695 456.461C622.193 456.57 622.707 456.673 623.233 456.771C624.043 454.281 627.062 445.907 630.898 446.394C635.403 446.964 633.592 450.323 630.398 452.315C628.055 453.783 625.178 455.865 623.813 456.872C624.972 457.06 626.179 457.189 627.405 457.161C630.552 457.086 632.087 458.012 632.683 458.512Z" fill="#A8D29F"/>
<path d="M707.446 460.373H61.9644C61.5441 460.373 61.2002 460.027 61.2002 459.609V459.271C61.2002 458.85 61.5441 458.507 61.9644 458.507H707.446C707.867 458.507 708.21 458.85 708.21 459.271V459.609C708.21 460.027 707.867 460.373 707.446 460.373Z" fill="#233862"/>
<path d="M594.264 195.113C592.923 173.146 577.515 169.485 563.356 169.488C549.199 169.493 535.355 176.838 536.028 193.358C536.317 200.487 538.309 206.676 543.031 211.065L537.708 224.385L548.547 214.746C552.904 216.803 558.591 217.953 565.905 217.951C587.597 217.943 595.128 209.246 594.264 195.113Z" fill="#ABB9FF"/>
<path d="M567.71 196.936L568.848 190.334H562.625L561.487 196.936H567.71ZM556.784 200.881H553.368V196.936H557.465L558.567 190.334H554.772V186.389H559.248L560.272 180.432H564.333L563.309 186.389H569.529L570.517 180.432H574.576L573.551 186.389H576.929V190.334H572.868L571.769 196.936H575.561V200.881H571.085L570.025 206.991H565.964L567.027 200.881H560.804L559.779 206.991H555.721L556.784 200.881Z" fill="#EBF3FA"/>
<path d="M167.841 279.267H208.381V242.035H167.841V279.267Z" fill="#D9E5FC"/>
<path d="M320.227 456.327L319.783 456.257C318.036 433.641 311.13 417.413 311.034 417.191L311.437 417.016C311.535 417.24 318.49 433.577 320.227 456.327Z" fill="#A8D29F"/>
<path d="M306.347 414.916C307.201 415.881 311.187 417.431 311.463 417.189C311.739 416.946 310.694 412.798 309.843 411.833C308.992 410.868 307.519 410.775 306.554 411.626C305.589 412.478 305.496 413.951 306.347 414.916Z" fill="white"/>
<path d="M312.459 411.551C311.69 412.583 310.991 416.807 311.288 417.026C311.582 417.245 315.428 415.37 316.197 414.338C316.966 413.306 316.752 411.845 315.72 411.077C314.688 410.308 313.228 410.519 312.459 411.551Z" fill="white"/>
<path d="M317.046 416.041C315.805 415.703 311.62 416.595 311.525 416.951C311.427 417.305 314.579 420.2 315.82 420.537C317.064 420.875 318.344 420.143 318.682 418.902C319.02 417.661 318.289 416.379 317.046 416.041Z" fill="white"/>
<path d="M314.218 421.639C314.094 420.357 311.774 416.76 311.411 416.796C311.044 416.833 309.458 420.806 309.579 422.085C309.703 423.368 310.843 424.307 312.123 424.183C313.405 424.056 314.342 422.919 314.218 421.639Z" fill="white"/>
<path d="M307.871 421.363C309.011 420.765 311.465 417.258 311.295 416.933C311.124 416.608 306.844 416.639 305.704 417.238C304.566 417.834 304.127 419.242 304.726 420.383C305.322 421.523 306.731 421.962 307.871 421.363Z" fill="white"/>
<path d="M310.537 416.812C310.604 416.394 310.996 416.11 311.417 416.175C311.835 416.242 312.119 416.636 312.054 417.054C311.987 417.472 311.592 417.759 311.174 417.692C310.756 417.625 310.47 417.232 310.537 416.812Z" fill="#F78248"/>
<path d="M318.138 423.463C316.873 425.021 315.506 431.554 315.95 431.915C316.393 432.276 322.511 429.606 323.777 428.05C325.044 426.492 324.809 424.203 323.251 422.937C321.693 421.67 319.404 421.907 318.138 423.463Z" fill="#A8D29F"/>
<path d="M315.024 442.225C316.34 442.867 319.247 446.768 319.064 447.142C318.881 447.516 314.018 447.63 312.704 446.988C311.389 446.348 310.842 444.761 311.484 443.445C312.124 442.132 313.711 441.585 315.024 442.225Z" fill="#A8D29F"/>
<path d="M332.902 456.327L333.411 456.247C335.418 430.282 343.346 411.647 343.457 411.394L342.993 411.195C342.884 411.451 334.897 430.207 332.902 456.327Z" fill="#A8D29F"/>
<path d="M348.836 408.781C347.859 409.89 343.282 411.67 342.964 411.391C342.65 411.113 343.849 406.348 344.827 405.241C345.805 404.134 347.495 404.028 348.602 405.006C349.711 405.984 349.814 407.674 348.836 408.781Z" fill="white"/>
<path d="M341.822 404.921C342.705 406.105 343.507 410.953 343.169 411.203C342.831 411.456 338.414 409.302 337.532 408.118C336.649 406.933 336.892 405.256 338.078 404.374C339.263 403.492 340.937 403.734 341.822 404.921Z" fill="white"/>
<path d="M336.553 410.073C337.98 409.686 342.784 410.71 342.895 411.118C343.006 411.526 339.386 414.849 337.962 415.236C336.535 415.625 335.065 414.784 334.675 413.357C334.288 411.933 335.129 410.463 336.553 410.073Z" fill="white"/>
<path d="M339.802 416.5C339.944 415.029 342.606 410.901 343.027 410.94C343.445 410.981 345.269 415.545 345.127 417.016C344.985 418.486 343.677 419.562 342.207 419.42C340.736 419.278 339.658 417.97 339.802 416.5Z" fill="white"/>
<path d="M347.088 416.185C345.779 415.496 342.962 411.471 343.158 411.1C343.354 410.726 348.267 410.759 349.575 411.446C350.885 412.134 351.388 413.75 350.702 415.058C350.013 416.366 348.396 416.871 347.088 416.185Z" fill="white"/>
<path d="M344.028 410.96C343.953 410.481 343.501 410.153 343.019 410.228C342.539 410.305 342.211 410.757 342.289 411.237C342.366 411.716 342.818 412.044 343.297 411.969C343.777 411.892 344.105 411.44 344.028 410.96Z" fill="#F78248"/>
<path d="M333.643 432.243C334.672 433.507 335.784 438.819 335.42 439.114C335.059 439.408 330.088 437.238 329.058 435.971C328.026 434.704 328.22 432.844 329.486 431.815C330.751 430.785 332.613 430.976 333.643 432.243Z" fill="#A8D29F"/>
<path d="M338.875 440.138C337.366 440.873 334.028 445.352 334.239 445.783C334.448 446.213 340.031 446.34 341.54 445.605C343.052 444.867 343.679 443.048 342.941 441.539C342.206 440.029 340.385 439.4 338.875 440.138Z" fill="#A8D29F"/>
<path d="M308.888 458.507C308.888 458.507 313.181 453.83 322.42 455.522C331.656 457.215 336.731 452.253 338.424 458.507H308.888Z" fill="#A8D29F"/>
</svg>
